<?xml version="1.0" encoding="us-ascii" standalone="no"?><svg xmlns="http://www.w3.org/2000/svg" xmlns:xlink="http://www.w3.org/1999/xlink" contentStyleType="text/css" height="1725px" preserveAspectRatio="none" style="width:1494px;height:1725px;background:#FEFEFE;" version="1.1" viewBox="0 0 1494 1725" width="1494px" zoomAndPan="magnify"><defs/><g><rect fill="#FEFEFE" height="1725" style="stroke:none;stroke-width:1.0;" width="1494" x="0" y="0"/><text fill="#000000" font-family="Verdana" font-size="22" font-weight="bold" lengthAdjust="spacing" textLength="401" x="545.25" y="37.1182">&#30450;&#20154;&#23548;&#33322;&#31995;&#32479; - &#20027;&#25511;&#21046;&#36923;&#36753;&#19982;&#19977;&#27169;&#22411;&#21028;&#26029;</text><ellipse cx="753.75" cy="62.7373" fill="#FFFFFF" rx="10" ry="10" style="stroke:#000000;stroke-width:1.0;"/><rect fill="#FFFFFF" height="34.584" rx="12.5" ry="12.5" style="stroke:#000000;stroke-width:1.0;" width="80" x="713.75" y="92.7373"/><text fill="#000000" font-family="Verdana" font-size="12" lengthAdjust="spacing" textLength="60" x="723.75" y="114.8018">&#25509;&#25910;&#35270;&#39057;&#24103;</text><rect fill="#000000" height="6" rx="2.5" ry="2.5" style="stroke:#000000;stroke-width:1.0;" width="1482.5" x="6" y="147.3213"/><rect fill="#ADD8E6" height="143.0986" style="stroke:#000000;stroke-width:1.0;" width="153" x="225" y="168.2373"/><path d="M339,168.2373 L339,178.252 L329,188.252 L225,188.252 " fill="none" style="stroke:#000000;stroke-width:1.0;"/><text fill="#000000" font-family="Verdana" font-size="14" lengthAdjust="spacing" textLength="104" x="228" y="183.3125">&#27169;&#22411;1: &#30450;&#36947;&#26816;&#27979;</text><rect fill="#FFFFFF" height="34.584" rx="12.5" ry="12.5" style="stroke:#000000;stroke-width:1.0;" width="126" x="238.5" y="205.252"/><text fill="#000000" font-family="Verdana" font-size="12" lengthAdjust="spacing" textLength="106" x="248.5" y="227.3164">YOLO&#30450;&#36947;&#26816;&#27979;&#27169;&#22411;</text><rect fill="#FFFFFF" height="34.584" rx="12.5" ry="12.5" style="stroke:#000000;stroke-width:1.0;" width="133" x="235" y="264.752"/><text fill="#000000" font-family="Verdana" font-size="12" lengthAdjust="spacing" textLength="113" x="245" y="286.8164">&#26816;&#27979;&#30450;&#36947; + &#20854;&#20182;&#29289;&#20307;</text><polygon fill="#FFFFFF" points="271,346.3359,332,346.3359,344,358.3359,332,370.3359,271,370.3359,259,358.3359,271,346.3359" style="stroke:#000000;stroke-width:1.0;"/><text fill="#000000" font-family="Verdana" font-size="11" lengthAdjust="spacing" textLength="61" x="271" y="362.7107">&#26816;&#27979;&#21040;&#30450;&#36947;?</text><text fill="#000000" font-family="Verdana" font-size="11" lengthAdjust="spacing" textLength="11" x="248" y="356.0264">&#26159;</text><text fill="#000000" font-family="Verdana" font-size="11" lengthAdjust="spacing" textLength="11" x="344" y="356.0264">&#21542;</text><rect fill="#90EE90" height="394.8145" style="stroke:#000000;stroke-width:1.0;" width="347" x="18" y="380.3359"/><path d="M84,380.3359 L84,390.3506 L74,400.3506 L18,400.3506 " fill="none" style="stroke:#000000;stroke-width:1.0;"/><text fill="#000000" font-family="Verdana" font-size="14" lengthAdjust="spacing" textLength="56" x="21" y="395.4111">&#30450;&#36947;&#27169;&#24335;</text><rect fill="#FFFFFF" height="34.584" rx="12.5" ry="12.5" style="stroke:#000000;stroke-width:1.0;" width="92" x="64" y="417.3506"/><text fill="#000000" font-family="Verdana" font-size="12" lengthAdjust="spacing" textLength="72" x="74" y="439.415">&#31616;&#21270;&#22788;&#29702;&#36923;&#36753;</text><path d="M200,479.5879 L200,543.7852 L180,547.7852 L200,551.7852 L200,615.9824 A0,0 0 0 0 200,615.9824 L355,615.9824 A0,0 0 0 0 355,615.9824 L355,489.5879 L345,479.5879 L200,479.5879 A0,0 0 0 0 200,479.5879 " fill="#FFFFFF" style="stroke:#000000;stroke-width:1.0;"/><path d="M345,479.5879 L345,489.5879 L355,489.5879 L345,479.5879 " fill="#FFFFFF" style="stroke:#000000;stroke-width:1.0;"/><text fill="#000000" font-family="Verdana" font-size="13" lengthAdjust="spacing" textLength="123" x="206" y="497.6577">person &#8594; obstacle</text><text fill="#000000" font-family="Verdana" font-size="13" lengthAdjust="spacing" textLength="125" x="206" y="513.457">vehicle &#8594; obstacle</text><text fill="#000000" font-family="Verdana" font-size="13" lengthAdjust="spacing" textLength="134" x="206" y="529.2563">sidewalk &#8594; obstacle</text><text fill="#000000" font-family="Verdana" font-size="13" lengthAdjust="spacing" textLength="5" x="206" y="545.0557">&#160;</text><text fill="#000000" font-family="Verdana" font-size="13" font-weight="bold" lengthAdjust="spacing" textLength="31" x="206" y="560.855">&#30446;&#30340;:</text><text fill="#000000" font-family="Verdana" font-size="13" lengthAdjust="spacing" textLength="78" x="206" y="576.6543">&#30450;&#20154;&#22312;&#30450;&#36947;&#19978;</text><text fill="#000000" font-family="Verdana" font-size="13" lengthAdjust="spacing" textLength="104" x="206" y="592.4536">&#21482;&#38656;&#30693;&#36947;&#26377;&#26080;&#38556;&#30861;</text><text fill="#000000" font-family="Verdana" font-size="13" lengthAdjust="spacing" textLength="78" x="206" y="608.2529">&#26080;&#38656;&#35814;&#32454;&#20998;&#31867;</text><rect fill="#FFFFFF" height="49.168" rx="12.5" ry="12.5" style="stroke:#000000;stroke-width:1.0;" width="140" x="40" y="523.2012"/><text fill="#000000" font-family="Verdana" font-size="12" lengthAdjust="spacing" textLength="120" x="50" y="545.2656">&#23558;&#25152;&#26377;&#20854;&#20182;&#29289;&#20307;&#26631;&#35760;&#20026;</text><text fill="#000000" font-family="Verdana" font-size="12" font-weight="bold" lengthAdjust="spacing" textLength="55" x="50" y="559.8496">obstacle</text><rect fill="#FFFFFF" height="34.584" rx="12.5" ry="12.5" style="stroke:#000000;stroke-width:1.0;" width="92" x="64" y="650.9824"/><text fill="#000000" font-family="Verdana" font-size="12" lengthAdjust="spacing" textLength="72" x="74" y="673.0469">&#29983;&#25104;&#36991;&#38556;&#25351;&#20196;</text><rect fill="#FFFFFF" height="34.584" rx="12.5" ry="12.5" style="stroke:#000000;stroke-width:1.0;" width="164" x="28" y="720.5664"/><text fill="#000000" font-family="Verdana" font-size="12" lengthAdjust="spacing" textLength="144" x="38" y="742.6309">"&#21069;&#26041;&#30450;&#36947;&#65292;&#24038;&#20391;&#26377;&#38556;&#30861;&#29289;"</text><rect fill="#FFFFE0" height="428.4058" style="stroke:#000000;stroke-width:1.0;" width="358.5" x="385" y="380.3359"/><path d="M499,380.3359 L499,390.3506 L489,400.3506 L385,400.3506 " fill="none" style="stroke:#000000;stroke-width:1.0;"/><text fill="#000000" font-family="Verdana" font-size="14" lengthAdjust="spacing" textLength="104" x="388" y="395.4111">&#27169;&#22411;2: &#29615;&#22659;&#24863;&#30693;</text><rect fill="#FFFFFF" height="34.584" rx="12.5" ry="12.5" style="stroke:#000000;stroke-width:1.0;" width="116" x="435" y="417.3506"/><text fill="#000000" font-family="Verdana" font-size="12" lengthAdjust="spacing" textLength="96" x="445" y="439.415">&#22330;&#26223;&#20998;&#31867;&#27169;&#22411;&#21551;&#21160;</text><rect fill="#FFFFFF" height="34.584" rx="12.5" ry="12.5" style="stroke:#000000;stroke-width:1.0;" width="116" x="435" y="479.5879"/><text fill="#000000" font-family="Verdana" font-size="12" lengthAdjust="spacing" textLength="96" x="445" y="501.6523">&#35814;&#32454;&#35782;&#21035;&#29615;&#22659;&#29289;&#20307;</text><path d="M582.5,574.2249 L582.5,598.9238 L562.5,602.9238 L582.5,606.9238 L582.5,631.6228 A0,0 0 0 0 582.5,631.6228 L733.5,631.6228 A0,0 0 0 0 733.5,631.6228 L733.5,584.2249 L723.5,574.2249 L582.5,574.2249 A0,0 0 0 0 582.5,574.2249 " fill="#FFFFFF" style="stroke:#000000;stroke-width:1.0;"/><path d="M723.5,574.2249 L723.5,584.2249 L733.5,584.2249 L723.5,574.2249 " fill="#FFFFFF" style="stroke:#000000;stroke-width:1.0;"/><text fill="#000000" font-family="Verdana" font-size="13" font-weight="bold" lengthAdjust="spacing" textLength="74" x="588.5" y="592.2947">5&#31867;&#35814;&#32454;&#20998;&#31867;</text><text fill="#000000" font-family="Verdana" font-size="13" lengthAdjust="spacing" textLength="117" x="588.5" y="608.094">&#25552;&#20379;&#31934;&#30830;&#30340;&#29615;&#22659;&#20449;&#24687;</text><text fill="#000000" font-family="Verdana" font-size="13" lengthAdjust="spacing" textLength="130" x="588.5" y="623.8933">&#24110;&#21161;&#30450;&#20154;&#29702;&#35299;&#21608;&#22260;&#29615;&#22659;</text><rect fill="#FFFFFF" height="107.5039" rx="12.5" ry="12.5" style="stroke:#000000;stroke-width:1.0;" width="139" x="423.5" y="549.1719"/><text fill="#000000" font-family="Verdana" font-size="12" lengthAdjust="spacing" textLength="53" x="433.5" y="571.2363">&#20998;&#31867;&#32467;&#26524;:</text><text fill="#000000" font-family="Verdana" font-size="12" lengthAdjust="spacing" textLength="119" x="433.5" y="585.8203">&#8226; Automobile (&#27773;&#36710;)</text><text fill="#000000" font-family="Verdana" font-size="12" lengthAdjust="spacing" textLength="116" x="433.5" y="600.4043">&#8226; Obstacle (&#38556;&#30861;&#29289;)</text><text fill="#000000" font-family="Verdana" font-size="12" lengthAdjust="spacing" textLength="93" x="433.5" y="614.9883">&#8226; Person (&#34892;&#20154;)</text><text fill="#000000" font-family="Verdana" font-size="12" lengthAdjust="spacing" textLength="81" x="433.5" y="629.5723">&#8226; Road (&#36947;&#36335;)</text><text fill="#000000" font-family="Verdana" font-size="12" lengthAdjust="spacing" textLength="117" x="433.5" y="644.1563">&#8226; Sidewalk (&#20154;&#34892;&#36947;)</text><rect fill="#FFFFFF" height="34.584" rx="12.5" ry="12.5" style="stroke:#000000;stroke-width:1.0;" width="92" x="447" y="691.6758"/><text fill="#000000" font-family="Verdana" font-size="12" lengthAdjust="spacing" textLength="72" x="457" y="713.7402">&#29983;&#25104;&#22330;&#26223;&#25551;&#36848;</text><rect fill="#FFFFFF" height="34.584" rx="12.5" ry="12.5" style="stroke:#000000;stroke-width:1.0;" width="196" x="395" y="761.2598"/><text fill="#000000" font-family="Verdana" font-size="12" lengthAdjust="spacing" textLength="176" x="405" y="783.3242">"&#21069;&#26041;&#26159;&#20154;&#34892;&#36947;&#65292;&#24038;&#20391;3&#31859;&#26377;&#34892;&#20154;"</text><polygon fill="#FFFFFF" points="301.5,814.7417,313.5,826.7417,301.5,838.7417,289.5,826.7417,301.5,814.7417" style="stroke:#000000;stroke-width:1.0;"/><rect fill="#FFFFFF" height="34.584" rx="12.5" ry="12.5" style="stroke:#000000;stroke-width:1.0;" width="92" x="255.5" y="873.7417"/><text fill="#000000" font-family="Verdana" font-size="12" lengthAdjust="spacing" textLength="72" x="265.5" y="895.8062">&#34701;&#21512;&#26816;&#27979;&#32467;&#26524;</text><rect fill="#F08080" height="749.9204" style="stroke:#000000;stroke-width:1.0;" width="695" x="781.5" y="163.3213"/><path d="M968.5,163.3213 L968.5,173.3359 L958.5,183.3359 L781.5,183.3359 " fill="none" style="stroke:#000000;stroke-width:1.0;"/><text fill="#000000" font-family="Verdana" font-size="14" lengthAdjust="spacing" textLength="177" x="784.5" y="178.3965">&#27169;&#22411;3: &#26292;&#21147;&#26816;&#27979; (&#29420;&#31435;&#27169;&#22359;)</text><path d="M801.5,508.9255 L801.5,566.3235 L965.5,566.3235 L965.5,518.9255 L955.5,508.9255 L801.5,508.9255 " fill="#FFFFFF" style="stroke:#000000;stroke-width:1.0;"/><path d="M955.5,508.9255 L955.5,518.9255 L965.5,518.9255 L955.5,508.9255 " fill="#FFFFFF" style="stroke:#000000;stroke-width:1.0;"/><text fill="#000000" font-family="Verdana" font-size="13" lengthAdjust="spacing" textLength="13" x="807.5" y="526.9954">&#65039;</text><text fill="#000000" font-family="Verdana" font-size="13" font-weight="bold" lengthAdjust="spacing" textLength="52" x="825.5" y="526.9954">&#29420;&#31435;&#26816;&#27979;</text><text fill="#000000" font-family="Verdana" font-size="13" lengthAdjust="spacing" textLength="117" x="807.5" y="542.7947">&#26080;&#35770;&#26159;&#21542;&#26816;&#27979;&#21040;&#30450;&#36947;</text><text fill="#000000" font-family="Verdana" font-size="13" lengthAdjust="spacing" textLength="143" x="807.5" y="558.594">&#22312;&#20219;&#20309;&#29615;&#22659;&#19979;&#37117;&#25345;&#32493;&#26816;&#27979;</text><rect fill="#FFFFFF" height="34.584" rx="12.5" ry="12.5" style="stroke:#000000;stroke-width:1.0;" width="123" x="1250.5" y="200.3359"/><text fill="#000000" font-family="Verdana" font-size="12" lengthAdjust="spacing" textLength="103" x="1260.5" y="222.4004">Fight&#20914;&#31361;&#26816;&#27979;&#27169;&#22411;</text><rect fill="#FFFFFF" height="34.584" rx="12.5" ry="12.5" style="stroke:#000000;stroke-width:1.0;" width="121" x="1251.5" y="259.8359"/><text fill="#000000" font-family="Verdana" font-size="12" lengthAdjust="spacing" textLength="101" x="1261.5" y="281.9004">&#26816;&#27979;&#25171;&#26550;/&#26292;&#21147;&#34892;&#20026;</text><polygon fill="#FFFFFF" points="1280,321.4199,1344,321.4199,1356,333.4199,1344,345.4199,1280,345.4199,1268,333.4199,1280,321.4199" style="stroke:#000000;stroke-width:1.0;"/><text fill="#000000" font-family="Verdana" font-size="11" lengthAdjust="spacing" textLength="64" x="1280" y="337.7947">&#26816;&#27979;&#21040;fight?</text><text fill="#000000" font-family="Verdana" font-size="11" lengthAdjust="spacing" textLength="11" x="1257" y="331.1104">&#26159;</text><text fill="#000000" font-family="Verdana" font-size="11" lengthAdjust="spacing" textLength="11" x="1356" y="331.1104">&#21542;</text><rect fill="#FFC0CB" height="34.584" rx="12.5" ry="12.5" style="stroke:#000000;stroke-width:1.0;" width="92" x="1137.5" y="355.4199"/><text fill="#000000" font-family="Verdana" font-size="12" lengthAdjust="spacing" textLength="72" x="1147.5" y="377.4844">&#35302;&#21457;&#32039;&#24613;&#39044;&#35686;</text><rect fill="#FFFFFF" height="34.584" rx="12.5" ry="12.5" style="stroke:#000000;stroke-width:1.0;" width="132" x="1117.5" y="425.0039"/><text fill="#000000" font-family="Verdana" font-size="12" lengthAdjust="spacing" textLength="112" x="1127.5" y="447.0684">&#20998;&#26512;fight&#20301;&#32622;&#21644;&#36317;&#31163;</text><polygon fill="#FFFFFF" points="1021.5,512.2412,1071.5,512.2412,1083.5,524.2412,1071.5,536.2412,1021.5,536.2412,1009.5,524.2412,1021.5,512.2412" style="stroke:#000000;stroke-width:1.0;"/><text fill="#000000" font-family="Verdana" font-size="11" lengthAdjust="spacing" textLength="22" x="1050.5" y="547.3003">&#21069;&#26041;</text><text fill="#000000" font-family="Verdana" font-size="11" lengthAdjust="spacing" textLength="50" x="1021.5" y="528.616">&#20301;&#32622;&#21028;&#26029;?</text><rect fill="#FFFFFF" height="63.752" rx="12.5" ry="12.5" style="stroke:#000000;stroke-width:1.0;" width="122" x="985.5" y="569.6099"/><text fill="#000000" font-family="Verdana" font-size="12" lengthAdjust="spacing" textLength="61" x="995.5" y="591.6743">&#39044;&#35686;&#25351;&#20196; =</text><text fill="#000000" font-family="Verdana" font-size="12" lengthAdjust="spacing" textLength="102" x="995.5" y="606.2583">"&#21361;&#38505;&#65281;&#21069;&#26041;&#26377;&#20914;&#31361;</text><text fill="#000000" font-family="Verdana" font-size="12" lengthAdjust="spacing" textLength="66" x="995.5" y="620.8423">&#35831;&#31435;&#21363;&#20572;&#19979;"</text><polygon fill="#FFFFFF" points="1171.5,512.2412,1195.5,512.2412,1207.5,524.2412,1195.5,536.2412,1171.5,536.2412,1159.5,524.2412,1171.5,512.2412" style="stroke:#000000;stroke-width:1.0;"/><text fill="#000000" font-family="Verdana" font-size="11" lengthAdjust="spacing" textLength="22" x="1172.5" y="528.616">&#24038;&#20391;</text><text fill="#000000" font-family="Verdana" font-size="11" lengthAdjust="spacing" textLength="22" x="1207.5" y="521.9316">&#21491;&#20391;</text><rect fill="#FFFFFF" height="63.752" rx="12.5" ry="12.5" style="stroke:#000000;stroke-width:1.0;" width="122" x="1122.5" y="556.2412"/><text fill="#000000" font-family="Verdana" font-size="12" lengthAdjust="spacing" textLength="61" x="1132.5" y="578.3057">&#39044;&#35686;&#25351;&#20196; =</text><text fill="#000000" font-family="Verdana" font-size="12" lengthAdjust="spacing" textLength="102" x="1132.5" y="592.8896">"&#21361;&#38505;&#65281;&#24038;&#20391;&#26377;&#20914;&#31361;</text><text fill="#000000" font-family="Verdana" font-size="12" lengthAdjust="spacing" textLength="66" x="1132.5" y="607.4736">&#35831;&#21521;&#21491;&#36991;&#35753;"</text><rect fill="#FFFFFF" height="63.752" rx="12.5" ry="12.5" style="stroke:#000000;stroke-width:1.0;" width="122" x="1264.5" y="565.9255"/><text fill="#000000" font-family="Verdana" font-size="12" lengthAdjust="spacing" textLength="61" x="1274.5" y="587.99">&#39044;&#35686;&#25351;&#20196; =</text><text fill="#000000" font-family="Verdana" font-size="12" lengthAdjust="spacing" textLength="102" x="1274.5" y="602.574">"&#21361;&#38505;&#65281;&#21491;&#20391;&#26377;&#20914;&#31361;</text><text fill="#000000" font-family="Verdana" font-size="12" lengthAdjust="spacing" textLength="66" x="1274.5" y="617.158">&#35831;&#21521;&#24038;&#36991;&#35753;"</text><rect fill="#FFFFFF" height="34.584" rx="12.5" ry="12.5" style="stroke:#000000;stroke-width:1.0;" width="104" x="1131.5" y="743.3618"/><text fill="#000000" font-family="Verdana" font-size="12" lengthAdjust="spacing" textLength="84" x="1141.5" y="765.4263">&#26368;&#39640;&#20248;&#20808;&#32423;&#25773;&#25253;</text><path d="M1249.5,805.8438 L1249.5,830.5427 L1229.5,834.5427 L1249.5,838.5427 L1249.5,863.2417 A0,0 0 0 0 1249.5,863.2417 L1374.5,863.2417 A0,0 0 0 0 1374.5,863.2417 L1374.5,815.8438 L1364.5,805.8438 L1249.5,805.8438 A0,0 0 0 0 1249.5,805.8438 " fill="#FFFFFF" style="stroke:#000000;stroke-width:1.0;"/><path d="M1364.5,805.8438 L1364.5,815.8438 L1374.5,815.8438 L1364.5,805.8438 " fill="#FFFFFF" style="stroke:#000000;stroke-width:1.0;"/><text fill="#000000" font-family="Verdana" font-size="13" lengthAdjust="spacing" textLength="5" x="1255.5" y="823.9136">&#160;</text><text fill="#000000" font-family="Verdana" font-size="13" font-weight="bold" lengthAdjust="spacing" textLength="65" x="1260.5" y="823.9136">&#26368;&#39640;&#20248;&#20808;&#32423;</text><text fill="#000000" font-family="Verdana" font-size="13" lengthAdjust="spacing" textLength="104" x="1255.5" y="839.7129">&#31435;&#21363;&#20013;&#26029;&#20854;&#20182;&#35821;&#38899;</text><text fill="#000000" font-family="Verdana" font-size="13" lengthAdjust="spacing" textLength="78" x="1255.5" y="855.5122">&#20445;&#25252;&#30450;&#20154;&#23433;&#20840;</text><rect fill="#FFFFFF" height="34.584" rx="12.5" ry="12.5" style="stroke:#000000;stroke-width:1.0;" width="92" x="1137.5" y="817.2507"/><text fill="#000000" font-family="Verdana" font-size="12" lengthAdjust="spacing" textLength="68" x="1147.5" y="839.3152">&#37325;&#22797;&#25773;&#25918;3&#27425;</text><rect fill="#FFFFFF" height="34.584" rx="12.5" ry="12.5" style="stroke:#000000;stroke-width:1.0;" width="68" x="1396.5" y="355.4199"/><text fill="#000000" font-family="Verdana" font-size="12" lengthAdjust="spacing" textLength="48" x="1406.5" y="377.4844">&#32487;&#32493;&#30417;&#27979;</text><polygon fill="#FFFFFF" points="1312,869.2417,1324,881.2417,1312,893.2417,1300,881.2417,1312,869.2417" style="stroke:#000000;stroke-width:1.0;"/><rect fill="#000000" height="6" rx="2.5" ry="2.5" style="stroke:#000000;stroke-width:1.0;" width="1482.5" x="6" y="933.2417"/><rect fill="#FFFFFF" height="34.584" rx="12.5" ry="12.5" style="stroke:#000000;stroke-width:1.0;" width="140" x="683.75" y="959.2417"/><text fill="#000000" font-family="Verdana" font-size="12" lengthAdjust="spacing" textLength="120" x="693.75" y="981.3062">&#21512;&#24182;&#25152;&#26377;&#27169;&#22411;&#26816;&#27979;&#32467;&#26524;</text><rect fill="#E6E6FA" height="420.5186" style="stroke:#000000;stroke-width:1.0;" width="296" x="604.75" y="1003.8257"/><path d="M709.75,1003.8257 L709.75,1013.8403 L699.75,1023.8403 L604.75,1023.8403 " fill="none" style="stroke:#000000;stroke-width:1.0;"/><text fill="#000000" font-family="Verdana" font-size="14" lengthAdjust="spacing" textLength="95" x="607.75" y="1018.9009">Qwen&#35821;&#38899;&#29983;&#25104;</text><rect fill="#FFFFFF" height="34.584" rx="12.5" ry="12.5" style="stroke:#000000;stroke-width:1.0;" width="141" x="683.25" y="1040.8403"/><text fill="#000000" font-family="Verdana" font-size="12" lengthAdjust="spacing" textLength="121" x="693.25" y="1062.9048">&#23558;&#26816;&#27979;&#32467;&#26524;&#20256;&#20837;Qwen</text><rect fill="#FFFFFF" height="34.584" rx="12.5" ry="12.5" style="stroke:#000000;stroke-width:1.0;" width="140" x="683.75" y="1095.4243"/><text fill="#000000" font-family="Verdana" font-size="12" lengthAdjust="spacing" textLength="120" x="693.75" y="1117.4888">&#29983;&#25104;&#33258;&#28982;&#35821;&#35328;&#23548;&#33322;&#25351;&#20196;</text><polygon fill="#FFFFFF" points="712.25,1150.0083,795.25,1150.0083,807.25,1162.0083,795.25,1174.0083,712.25,1174.0083,700.25,1162.0083,712.25,1150.0083" style="stroke:#000000;stroke-width:1.0;"/><text fill="#000000" font-family="Verdana" font-size="11" lengthAdjust="spacing" textLength="83" x="712.25" y="1166.3831">&#26159;&#21542;&#26377;&#32039;&#24613;&#39044;&#35686;?</text><text fill="#000000" font-family="Verdana" font-size="11" lengthAdjust="spacing" textLength="11" x="689.25" y="1159.6987">&#26377;</text><text fill="#000000" font-family="Verdana" font-size="11" lengthAdjust="spacing" textLength="11" x="807.25" y="1159.6987">&#26080;</text><rect fill="#FFFFFF" height="34.584" rx="12.5" ry="12.5" style="stroke:#000000;stroke-width:1.0;" width="120" x="624.75" y="1184.0083"/><text fill="#000000" font-family="Verdana" font-size="12" lengthAdjust="spacing" textLength="100" x="634.75" y="1206.0728">&#20248;&#20808;&#25773;&#25918;fight&#39044;&#35686;</text><rect fill="#FFFFFF" height="34.584" rx="12.5" ry="12.5" style="stroke:#000000;stroke-width:1.0;" width="92" x="638.75" y="1238.5923"/><text fill="#000000" font-family="Verdana" font-size="12" lengthAdjust="spacing" textLength="72" x="648.75" y="1260.6567">&#20013;&#26029;&#20854;&#20182;&#25351;&#20196;</text><rect fill="#FFFFFF" height="34.584" rx="12.5" ry="12.5" style="stroke:#000000;stroke-width:1.0;" width="116" x="764.75" y="1184.0083"/><text fill="#000000" font-family="Verdana" font-size="12" lengthAdjust="spacing" textLength="96" x="774.75" y="1206.0728">&#25773;&#25918;&#24120;&#35268;&#23548;&#33322;&#25351;&#20196;</text><polygon fill="#FFFFFF" points="753.75,1279.1763,765.75,1291.1763,753.75,1303.1763,741.75,1291.1763,753.75,1279.1763" style="stroke:#000000;stroke-width:1.0;"/><rect fill="#FFFFFF" height="34.584" rx="12.5" ry="12.5" style="stroke:#000000;stroke-width:1.0;" width="115" x="696.25" y="1323.1763"/><text fill="#000000" font-family="Verdana" font-size="12" lengthAdjust="spacing" textLength="95" x="706.25" y="1345.2407">pyttsx3&#35821;&#38899;&#21512;&#25104;</text><rect fill="#FFFFFF" height="34.584" rx="12.5" ry="12.5" style="stroke:#000000;stroke-width:1.0;" width="72" x="717.75" y="1377.7603"/><text fill="#000000" font-family="Verdana" font-size="12" lengthAdjust="spacing" textLength="48" x="727.75" y="1399.8247">&#36755;&#20986;&#38899;&#39057;</text><rect fill="#FFFFFF" height="34.584" rx="12.5" ry="12.5" style="stroke:#000000;stroke-width:1.0;" width="140" x="683.75" y="1444.3442"/><text fill="#000000" font-family="Verdana" font-size="12" lengthAdjust="spacing" textLength="120" x="693.75" y="1466.4087">&#22312;&#35270;&#39057;&#24103;&#19978;&#32472;&#21046;&#26816;&#27979;&#26694;</text><rect fill="#FFFFFF" height="34.584" rx="12.5" ry="12.5" style="stroke:#000000;stroke-width:1.0;" width="116" x="695.75" y="1498.9282"/><text fill="#000000" font-family="Verdana" font-size="12" lengthAdjust="spacing" textLength="96" x="705.75" y="1520.9927">&#25512;&#36865;&#21040;&#27983;&#35272;&#22120;&#26174;&#31034;</text><ellipse cx="753.75" cy="1564.5122" fill="none" rx="11" ry="11" style="stroke:#000000;stroke-width:1.0;"/><ellipse cx="753.75" cy="1564.5122" fill="#FFFFFF" rx="6" ry="6" style="stroke:#000000;stroke-width:1.0;"/><line style="stroke:#000000;stroke-width:1.0;" x1="753.75" x2="753.75" y1="72.7373" y2="92.7373"/><polygon fill="#000000" points="749.75,82.7373,753.75,92.7373,757.75,82.7373,753.75,86.7373" style="stroke:#000000;stroke-width:1.0;"/><line style="stroke:#000000;stroke-width:1.0;" x1="301.5" x2="301.5" y1="239.8359" y2="264.752"/><polygon fill="#000000" points="297.5,254.752,301.5,264.752,305.5,254.752,301.5,258.752" style="stroke:#000000;stroke-width:1.0;"/><line style="stroke:#000000;stroke-width:1.0;" x1="110" x2="110" y1="451.9346" y2="523.2012"/><polygon fill="#000000" points="106,513.2012,110,523.2012,114,513.2012,110,517.2012" style="stroke:#000000;stroke-width:1.0;"/><line style="stroke:#000000;stroke-width:1.0;" x1="110" x2="110" y1="572.3691" y2="650.9824"/><polygon fill="#000000" points="106,640.9824,110,650.9824,114,640.9824,110,644.9824" style="stroke:#000000;stroke-width:1.0;"/><line style="stroke:#000000;stroke-width:1.0;" x1="110" x2="110" y1="685.5664" y2="720.5664"/><polygon fill="#000000" points="106,710.5664,110,720.5664,114,710.5664,110,714.5664" style="stroke:#000000;stroke-width:1.0;"/><line style="stroke:#000000;stroke-width:1.0;" x1="493" x2="493" y1="451.9346" y2="479.5879"/><polygon fill="#000000" points="489,469.5879,493,479.5879,497,469.5879,493,473.5879" style="stroke:#000000;stroke-width:1.0;"/><line style="stroke:#000000;stroke-width:1.0;" x1="493" x2="493" y1="514.1719" y2="549.1719"/><polygon fill="#000000" points="489,539.1719,493,549.1719,497,539.1719,493,543.1719" style="stroke:#000000;stroke-width:1.0;"/><line style="stroke:#000000;stroke-width:1.0;" x1="493" x2="493" y1="656.6758" y2="691.6758"/><polygon fill="#000000" points="489,681.6758,493,691.6758,497,681.6758,493,685.6758" style="stroke:#000000;stroke-width:1.0;"/><line style="stroke:#000000;stroke-width:1.0;" x1="493" x2="493" y1="726.2598" y2="761.2598"/><polygon fill="#000000" points="489,751.2598,493,761.2598,497,751.2598,493,755.2598" style="stroke:#000000;stroke-width:1.0;"/><line style="stroke:#000000;stroke-width:1.0;" x1="259" x2="110" y1="358.3359" y2="358.3359"/><line style="stroke:#000000;stroke-width:1.0;" x1="110" x2="110" y1="358.3359" y2="417.3506"/><polygon fill="#000000" points="106,407.3506,110,417.3506,114,407.3506,110,411.3506" style="stroke:#000000;stroke-width:1.0;"/><line style="stroke:#000000;stroke-width:1.0;" x1="344" x2="493" y1="358.3359" y2="358.3359"/><line style="stroke:#000000;stroke-width:1.0;" x1="493" x2="493" y1="358.3359" y2="417.3506"/><polygon fill="#000000" points="489,407.3506,493,417.3506,497,407.3506,493,411.3506" style="stroke:#000000;stroke-width:1.0;"/><line style="stroke:#000000;stroke-width:1.0;" x1="110" x2="110" y1="755.1504" y2="826.7417"/><line style="stroke:#000000;stroke-width:1.0;" x1="110" x2="289.5" y1="826.7417" y2="826.7417"/><polygon fill="#000000" points="279.5,822.7417,289.5,826.7417,279.5,830.7417,283.5,826.7417" style="stroke:#000000;stroke-width:1.0;"/><line style="stroke:#000000;stroke-width:1.0;" x1="493" x2="493" y1="795.8438" y2="826.7417"/><line style="stroke:#000000;stroke-width:1.0;" x1="493" x2="313.5" y1="826.7417" y2="826.7417"/><polygon fill="#000000" points="323.5,822.7417,313.5,826.7417,323.5,830.7417,319.5,826.7417" style="stroke:#000000;stroke-width:1.0;"/><line style="stroke:#000000;stroke-width:1.0;" x1="301.5" x2="301.5" y1="299.3359" y2="346.3359"/><polygon fill="#000000" points="297.5,336.3359,301.5,346.3359,305.5,336.3359,301.5,340.3359" style="stroke:#000000;stroke-width:1.0;"/><line style="stroke:#000000;stroke-width:1.0;" x1="301.5" x2="301.5" y1="838.7417" y2="873.7417"/><polygon fill="#000000" points="297.5,863.7417,301.5,873.7417,305.5,863.7417,301.5,867.7417" style="stroke:#000000;stroke-width:1.0;"/><line style="stroke:#000000;stroke-width:1.0;" x1="1312" x2="1312" y1="234.9199" y2="259.8359"/><polygon fill="#000000" points="1308,249.8359,1312,259.8359,1316,249.8359,1312,253.8359" style="stroke:#000000;stroke-width:1.0;"/><line style="stroke:#000000;stroke-width:1.0;" x1="1183.5" x2="1183.5" y1="390.0039" y2="425.0039"/><polygon fill="#000000" points="1179.5,415.0039,1183.5,425.0039,1187.5,415.0039,1183.5,419.0039" style="stroke:#000000;stroke-width:1.0;"/><line style="stroke:#000000;stroke-width:1.0;" x1="1046.5" x2="1046.5" y1="536.2412" y2="569.6099"/><polygon fill="#000000" points="1042.5,559.6099,1046.5,569.6099,1050.5,559.6099,1046.5,563.6099" style="stroke:#000000;stroke-width:1.0;"/><line style="stroke:#000000;stroke-width:1.0;" x1="1046.5" x2="1046.5" y1="633.3618" y2="708.3618"/><polygon fill="#000000" points="1042.5,698.3618,1046.5,708.3618,1050.5,698.3618,1046.5,702.3618" style="stroke:#000000;stroke-width:1.0;"/><line style="stroke:#000000;stroke-width:1.0;" x1="1183.5" x2="1183.5" y1="536.2412" y2="556.2412"/><polygon fill="#000000" points="1179.5,546.2412,1183.5,556.2412,1187.5,546.2412,1183.5,550.2412" style="stroke:#000000;stroke-width:1.0;"/><line style="stroke:#000000;stroke-width:1.0;" x1="1183.5" x2="1183.5" y1="619.9932" y2="743.3618"/><polygon fill="#000000" points="1179.5,733.3618,1183.5,743.3618,1187.5,733.3618,1183.5,737.3618" style="stroke:#000000;stroke-width:1.0;"/><line style="stroke:#000000;stroke-width:1.0;" x1="1083.5" x2="1159.5" y1="524.2412" y2="524.2412"/><polygon fill="#000000" points="1149.5,520.2412,1159.5,524.2412,1149.5,528.2412,1153.5,524.2412" style="stroke:#000000;stroke-width:1.0;"/><line style="stroke:#000000;stroke-width:1.0;" x1="1183.5" x2="1183.5" y1="459.5879" y2="487.2412"/><line style="stroke:#000000;stroke-width:1.0;" x1="1183.5" x2="1046.5" y1="487.2412" y2="487.2412"/><line style="stroke:#000000;stroke-width:1.0;" x1="1046.5" x2="1046.5" y1="487.2412" y2="512.2412"/><polygon fill="#000000" points="1042.5,502.2412,1046.5,512.2412,1050.5,502.2412,1046.5,506.2412" style="stroke:#000000;stroke-width:1.0;"/><line style="stroke:#000000;stroke-width:1.0;" x1="1207.5" x2="1325.5" y1="524.2412" y2="524.2412"/><line style="stroke:#000000;stroke-width:1.0;" x1="1325.5" x2="1325.5" y1="524.2412" y2="565.9255"/><polygon fill="#000000" points="1321.5,555.9255,1325.5,565.9255,1329.5,555.9255,1325.5,559.9255" style="stroke:#000000;stroke-width:1.0;"/><line style="stroke:#000000;stroke-width:1.0;" x1="1325.5" x2="1325.5" y1="629.6775" y2="708.3618"/><polygon fill="#000000" points="1321.5,698.3618,1325.5,708.3618,1329.5,698.3618,1325.5,702.3618" style="stroke:#000000;stroke-width:1.0;"/><line style="stroke:#000000;stroke-width:1.0;" x1="1046.5" x2="1325.5" y1="708.3618" y2="708.3618"/><line style="stroke:#000000;stroke-width:1.0;" x1="1183.5" x2="1183.5" y1="777.9458" y2="817.2507"/><polygon fill="#000000" points="1179.5,807.2507,1183.5,817.2507,1187.5,807.2507,1183.5,811.2507" style="stroke:#000000;stroke-width:1.0;"/><line style="stroke:#000000;stroke-width:1.0;" x1="1268" x2="1183.5" y1="333.4199" y2="333.4199"/><line style="stroke:#000000;stroke-width:1.0;" x1="1183.5" x2="1183.5" y1="333.4199" y2="355.4199"/><polygon fill="#000000" points="1179.5,345.4199,1183.5,355.4199,1187.5,345.4199,1183.5,349.4199" style="stroke:#000000;stroke-width:1.0;"/><line style="stroke:#000000;stroke-width:1.0;" x1="1356" x2="1430.5" y1="333.4199" y2="333.4199"/><line style="stroke:#000000;stroke-width:1.0;" x1="1430.5" x2="1430.5" y1="333.4199" y2="355.4199"/><polygon fill="#000000" points="1426.5,345.4199,1430.5,355.4199,1434.5,345.4199,1430.5,349.4199" style="stroke:#000000;stroke-width:1.0;"/><line style="stroke:#000000;stroke-width:1.0;" x1="1183.5" x2="1183.5" y1="851.8347" y2="881.2417"/><line style="stroke:#000000;stroke-width:1.0;" x1="1183.5" x2="1300" y1="881.2417" y2="881.2417"/><polygon fill="#000000" points="1290,877.2417,1300,881.2417,1290,885.2417,1294,881.2417" style="stroke:#000000;stroke-width:1.0;"/><line style="stroke:#000000;stroke-width:1.0;" x1="1430.5" x2="1430.5" y1="390.0039" y2="881.2417"/><line style="stroke:#000000;stroke-width:1.0;" x1="1430.5" x2="1324" y1="881.2417" y2="881.2417"/><polygon fill="#000000" points="1334,877.2417,1324,881.2417,1334,885.2417,1330,881.2417" style="stroke:#000000;stroke-width:1.0;"/><line style="stroke:#000000;stroke-width:1.0;" x1="1312" x2="1312" y1="294.4199" y2="321.4199"/><polygon fill="#000000" points="1308,311.4199,1312,321.4199,1316,311.4199,1312,315.4199" style="stroke:#000000;stroke-width:1.0;"/><line style="stroke:#000000;stroke-width:1.0;" x1="301.5" x2="301.5" y1="153.3213" y2="205.252"/><polygon fill="#000000" points="297.5,195.252,301.5,205.252,305.5,195.252,301.5,199.252" style="stroke:#000000;stroke-width:1.0;"/><line style="stroke:#000000;stroke-width:1.0;" x1="1312" x2="1312" y1="153.3213" y2="200.3359"/><polygon fill="#000000" points="1308,190.3359,1312,200.3359,1316,190.3359,1312,194.3359" style="stroke:#000000;stroke-width:1.0;"/><line style="stroke:#000000;stroke-width:1.0;" x1="301.5" x2="301.5" y1="908.3257" y2="933.2417"/><polygon fill="#000000" points="297.5,923.2417,301.5,933.2417,305.5,923.2417,301.5,927.2417" style="stroke:#000000;stroke-width:1.0;"/><line style="stroke:#000000;stroke-width:1.0;" x1="1312" x2="1312" y1="893.2417" y2="933.2417"/><polygon fill="#000000" points="1308,923.2417,1312,933.2417,1316,923.2417,1312,927.2417" style="stroke:#000000;stroke-width:1.0;"/><line style="stroke:#000000;stroke-width:1.0;" x1="753.75" x2="753.75" y1="127.3213" y2="147.3213"/><polygon fill="#000000" points="749.75,137.3213,753.75,147.3213,757.75,137.3213,753.75,141.3213" style="stroke:#000000;stroke-width:1.0;"/><line style="stroke:#000000;stroke-width:1.0;" x1="753.75" x2="753.75" y1="939.2417" y2="959.2417"/><polygon fill="#000000" points="749.75,949.2417,753.75,959.2417,757.75,949.2417,753.75,953.2417" style="stroke:#000000;stroke-width:1.0;"/><line style="stroke:#000000;stroke-width:1.0;" x1="753.75" x2="753.75" y1="1075.4243" y2="1095.4243"/><polygon fill="#000000" points="749.75,1085.4243,753.75,1095.4243,757.75,1085.4243,753.75,1089.4243" style="stroke:#000000;stroke-width:1.0;"/><line style="stroke:#000000;stroke-width:1.0;" x1="684.75" x2="684.75" y1="1218.5923" y2="1238.5923"/><polygon fill="#000000" points="680.75,1228.5923,684.75,1238.5923,688.75,1228.5923,684.75,1232.5923" style="stroke:#000000;stroke-width:1.0;"/><line style="stroke:#000000;stroke-width:1.0;" x1="700.25" x2="684.75" y1="1162.0083" y2="1162.0083"/><line style="stroke:#000000;stroke-width:1.0;" x1="684.75" x2="684.75" y1="1162.0083" y2="1184.0083"/><polygon fill="#000000" points="680.75,1174.0083,684.75,1184.0083,688.75,1174.0083,684.75,1178.0083" style="stroke:#000000;stroke-width:1.0;"/><line style="stroke:#000000;stroke-width:1.0;" x1="807.25" x2="822.75" y1="1162.0083" y2="1162.0083"/><line style="stroke:#000000;stroke-width:1.0;" x1="822.75" x2="822.75" y1="1162.0083" y2="1184.0083"/><polygon fill="#000000" points="818.75,1174.0083,822.75,1184.0083,826.75,1174.0083,822.75,1178.0083" style="stroke:#000000;stroke-width:1.0;"/><line style="stroke:#000000;stroke-width:1.0;" x1="684.75" x2="684.75" y1="1273.1763" y2="1291.1763"/><line style="stroke:#000000;stroke-width:1.0;" x1="684.75" x2="741.75" y1="1291.1763" y2="1291.1763"/><polygon fill="#000000" points="731.75,1287.1763,741.75,1291.1763,731.75,1295.1763,735.75,1291.1763" style="stroke:#000000;stroke-width:1.0;"/><line style="stroke:#000000;stroke-width:1.0;" x1="822.75" x2="822.75" y1="1218.5923" y2="1291.1763"/><line style="stroke:#000000;stroke-width:1.0;" x1="822.75" x2="765.75" y1="1291.1763" y2="1291.1763"/><polygon fill="#000000" points="775.75,1287.1763,765.75,1291.1763,775.75,1295.1763,771.75,1291.1763" style="stroke:#000000;stroke-width:1.0;"/><line style="stroke:#000000;stroke-width:1.0;" x1="753.75" x2="753.75" y1="1130.0083" y2="1150.0083"/><polygon fill="#000000" points="749.75,1140.0083,753.75,1150.0083,757.75,1140.0083,753.75,1144.0083" style="stroke:#000000;stroke-width:1.0;"/><line style="stroke:#000000;stroke-width:1.0;" x1="753.75" x2="753.75" y1="1303.1763" y2="1323.1763"/><polygon fill="#000000" points="749.75,1313.1763,753.75,1323.1763,757.75,1313.1763,753.75,1317.1763" style="stroke:#000000;stroke-width:1.0;"/><line style="stroke:#000000;stroke-width:1.0;" x1="753.75" x2="753.75" y1="1357.7603" y2="1377.7603"/><polygon fill="#000000" points="749.75,1367.7603,753.75,1377.7603,757.75,1367.7603,753.75,1371.7603" style="stroke:#000000;stroke-width:1.0;"/><line style="stroke:#000000;stroke-width:1.0;" x1="753.75" x2="753.75" y1="993.8257" y2="1040.8403"/><polygon fill="#000000" points="749.75,1030.8403,753.75,1040.8403,757.75,1030.8403,753.75,1034.8403" style="stroke:#000000;stroke-width:1.0;"/><line style="stroke:#000000;stroke-width:1.0;" x1="753.75" x2="753.75" y1="1412.3442" y2="1444.3442"/><polygon fill="#000000" points="749.75,1434.3442,753.75,1444.3442,757.75,1434.3442,753.75,1438.3442" style="stroke:#000000;stroke-width:1.0;"/><line style="stroke:#000000;stroke-width:1.0;" x1="753.75" x2="753.75" y1="1478.9282" y2="1498.9282"/><polygon fill="#000000" points="749.75,1488.9282,753.75,1498.9282,757.75,1488.9282,753.75,1492.9282" style="stroke:#000000;stroke-width:1.0;"/><line style="stroke:#000000;stroke-width:1.0;" x1="753.75" x2="753.75" y1="1533.5122" y2="1553.5122"/><polygon fill="#000000" points="749.75,1543.5122,753.75,1553.5122,757.75,1543.5122,753.75,1547.5122" style="stroke:#000000;stroke-width:1.0;"/><rect fill="none" height="133.1025" id="_legend" rx="7.5" ry="7.5" style="stroke:#000000;stroke-width:1.0;" width="224" x="1257.5" y="1579.5122"/><text fill="#000000" font-family="Verdana" font-size="14" font-weight="bold" lengthAdjust="spacing" textLength="28" x="1267.5" y="1600.5874">&#39068;&#33394;</text><text fill="#000000" font-family="Verdana" font-size="14" font-weight="bold" lengthAdjust="spacing" textLength="28" x="1305.5" y="1600.5874">&#27169;&#22359;</text><text fill="#000000" font-family="Verdana" font-size="14" font-weight="bold" lengthAdjust="spacing" textLength="28" x="1371.5" y="1600.5874">&#35828;&#26126;</text><rect fill="#ADD8E6" height="17.0146" style="stroke:none;stroke-width:1.0;" width="38" x="1262.5" y="1603.5269"/><text fill="#000000" font-family="Verdana" font-size="14" lengthAdjust="spacing" textLength="5" x="1262.5" y="1617.6021">&#160;</text><text fill="#000000" font-family="Verdana" font-size="14" lengthAdjust="spacing" textLength="37" x="1305.5" y="1617.6021">&#27169;&#22411;1</text><text fill="#000000" font-family="Verdana" font-size="14" lengthAdjust="spacing" textLength="95" x="1371.5" y="1617.6021">YOLO&#30450;&#36947;&#26816;&#27979;</text><rect fill="#90EE90" height="17.0146" style="stroke:none;stroke-width:1.0;" width="38" x="1262.5" y="1620.5415"/><text fill="#000000" font-family="Verdana" font-size="14" lengthAdjust="spacing" textLength="5" x="1262.5" y="1634.6167">&#160;</text><text fill="#000000" font-family="Verdana" font-size="14" lengthAdjust="spacing" textLength="56" x="1305.5" y="1634.6167">&#30450;&#36947;&#27169;&#24335;</text><text fill="#000000" font-family="Verdana" font-size="14" lengthAdjust="spacing" textLength="100" x="1371.5" y="1634.6167">&#31616;&#21270;&#20026;obstacle</text><rect fill="#FFFFE0" height="17.0146" style="stroke:none;stroke-width:1.0;" width="38" x="1262.5" y="1637.5562"/><text fill="#000000" font-family="Verdana" font-size="14" lengthAdjust="spacing" textLength="5" x="1262.5" y="1651.6313">&#160;</text><text fill="#000000" font-family="Verdana" font-size="14" lengthAdjust="spacing" textLength="37" x="1305.5" y="1651.6313">&#27169;&#22411;2</text><text fill="#000000" font-family="Verdana" font-size="14" lengthAdjust="spacing" textLength="79" x="1371.5" y="1651.6313">&#29615;&#22659;&#24863;&#30693;5&#31867;</text><rect fill="#F08080" height="17.0146" style="stroke:none;stroke-width:1.0;" width="38" x="1262.5" y="1654.5708"/><text fill="#000000" font-family="Verdana" font-size="14" lengthAdjust="spacing" textLength="5" x="1262.5" y="1668.646">&#160;</text><text fill="#000000" font-family="Verdana" font-size="14" lengthAdjust="spacing" textLength="37" x="1305.5" y="1668.646">&#27169;&#22411;3</text><text fill="#000000" font-family="Verdana" font-size="14" lengthAdjust="spacing" textLength="96" x="1371.5" y="1668.646">&#26292;&#21147;&#26816;&#27979;(&#29420;&#31435;)</text><rect fill="#FFC0CB" height="17.0146" style="stroke:none;stroke-width:1.0;" width="38" x="1262.5" y="1671.5854"/><text fill="#000000" font-family="Verdana" font-size="14" lengthAdjust="spacing" textLength="5" x="1262.5" y="1685.6606">&#160;</text><text fill="#000000" font-family="Verdana" font-size="14" lengthAdjust="spacing" textLength="28" x="1305.5" y="1685.6606">&#39044;&#35686;</text><text fill="#000000" font-family="Verdana" font-size="14" lengthAdjust="spacing" textLength="70" x="1371.5" y="1685.6606">&#26368;&#39640;&#20248;&#20808;&#32423;</text><rect fill="#E6E6FA" height="17.0146" style="stroke:none;stroke-width:1.0;" width="38" x="1262.5" y="1688.6001"/><text fill="#000000" font-family="Verdana" font-size="14" lengthAdjust="spacing" textLength="5" x="1262.5" y="1702.6753">&#160;</text><text fill="#000000" font-family="Verdana" font-size="14" lengthAdjust="spacing" textLength="39" x="1305.5" y="1702.6753">Qwen</text><text fill="#000000" font-family="Verdana" font-size="14" lengthAdjust="spacing" textLength="56" x="1371.5" y="1702.6753">&#35821;&#38899;&#29983;&#25104;</text><line style="stroke:#000000;stroke-width:1.0;" x1="1262.5" x2="1476.5" y1="1586.5122" y2="1586.5122"/><line style="stroke:#000000;stroke-width:1.0;" x1="1262.5" x2="1476.5" y1="1603.5269" y2="1603.5269"/><line style="stroke:#000000;stroke-width:1.0;" x1="1262.5" x2="1476.5" y1="1620.5415" y2="1620.5415"/><line style="stroke:#000000;stroke-width:1.0;" x1="1262.5" x2="1476.5" y1="1637.5562" y2="1637.5562"/><line style="stroke:#000000;stroke-width:1.0;" x1="1262.5" x2="1476.5" y1="1654.5708" y2="1654.5708"/><line style="stroke:#000000;stroke-width:1.0;" x1="1262.5" x2="1476.5" y1="1671.5854" y2="1671.5854"/><line style="stroke:#000000;stroke-width:1.0;" x1="1262.5" x2="1476.5" y1="1688.6001" y2="1688.6001"/><line style="stroke:#000000;stroke-width:1.0;" x1="1262.5" x2="1476.5" y1="1705.6147" y2="1705.6147"/><line style="stroke:#000000;stroke-width:1.0;" x1="1262.5" x2="1262.5" y1="1586.5122" y2="1705.6147"/><line style="stroke:#000000;stroke-width:1.0;" x1="1300.5" x2="1300.5" y1="1586.5122" y2="1705.6147"/><line style="stroke:#000000;stroke-width:1.0;" x1="1366.5" x2="1366.5" y1="1586.5122" y2="1705.6147"/><line style="stroke:#000000;stroke-width:1.0;" x1="1476.5" x2="1476.5" y1="1586.5122" y2="1705.6147"/><!--SRC=[dLTVRnf747-_Jt5r7WfKLTLOVS5DgpPg-X8fQViKoIyaFZl8vCx296dLH0B5mM2CmR7hE87OiMC3TcBmlzY40_nTejlTkwTyXSxU773SdOcSiuHXTsPsRkOtlvdzAdPNkYU9Kv5GM1Qc9yFoL2WQkYVU3jsPd8Wgz-Mngqf4YOgNhlt6_mGX5ev5994L3hL6WzIQUcgN7QbCNHU_5RMwIXVA97LYn5MzlQZL5xHwcbOso5g6fBReofuWJCT2qPWW1Ed2Dbq-qSj9OtEHrCiZWl2rUCNZ4Sc74trZdcpDi7oIDEEadF6K4yQLwAGWmdEUdLIIBjU-3tBFZSGIVHEdxpFW8LkeaSqdT6QThMzxM-P68IRmtc555eVmVHo6XiHBryCJTsE_HkvBuh-c2d-2jsvSls6NG-MHdW0keuZuZKYUdcZg2allQAqbb7fiVfeVuN7HX_8ajOygF_j5I9yCwwirVzUgpLlhS3YscUiu-NjK0fMUbwOZh1edyoiOPqpVIBy0sK_IT9mMqtOVwUjPlRglrHkZSY2Wt8Riteb8WK2_ggp4937AJ-vRDZsLejFWviVaCx6ZxP9v8DqDm_fWeUdmcFGm59aSBELQ20HOeSfUpWG30TUU1V5Y1MEerUTS8YItQnJZW1mUusAQFdzjl2oopQnBaEyKutgjnDGa894Tg7qYaZncHaaurzaWMrwdgRoHE8CJwFoifcuvyZD4qbcwyW6T_TIS9wSbhLq6hz0boDTGJmDH9KMc9T57yYLFw21MBmFGRINImT0jAH9H7Zf1H8eD-gA6BsZLVRv6vYeELp4EUWr2yHQDsn7l_VvebAbBTAqO79K_nZV5N-x7b7lAxJ1WmqSFMdghvCUD6rR-HL_ttQsTcuWt7r0AvDPQ_5C9ZO5eOaa_hLbBVtNWv0Cn48PD_m3l1Y0y4FW1_BPdtWDgD9VNsWLss6OR78qO4-riWoPgRipLgsHk1y49jQgNtv352YaSezANmGhpHdCv_MpV6rR0Bzr8TC4rp0wE060OJ3UwvB7mU8-zWlfQbkHJ5k6PUGJMvxGjXYPux_aiUGCKwSjZCbT06wAFPTwnjndi4FuBaFUmjo6- -UgvlmFngqeq5B4Xt1N9J_KS9n3KDIqvKWjLhrSR43eeCGTnzya1nsYgghN-in9VpnXFMdG-mTGzL1FEpMYlarpZFfFa8TjD3EmrD0sXF_aE0y1JLs-CkCtrzPfnRjgxrV3dqismF1dKooMIMsJ7PHhVDZPdzBtIPygPhkLDmrehorfLycnUFtt5Ike0BUwK9MsE4rsN4AD-Lwq4qH7aI_7Ag3n4iWV6YvrFpOG5QsXdPiX6PRrsoi6KFIA98cHWgDyFJfNyU0J-nKxg4B7j999V9BaZO7EzkkDn4foJExhmEQQA-vpJalSvtVBqpX0jnestgrfpbJnDiKQPFjkZSziESZ1cisGhoxUMsyFqtORuPHm9LUGupQiTcydHwdkGU1n1zDgUiNxa4jJENj6vBQjxLs5SgLo053rQ8lAaMePgP8L5g8WHmHt3nmAtQmwXvqsoo7b0WK1OC7ZgxIKos_1chI1AuRo5TUpWJHkd_V5GaZ4KIEQSlq8Fm1qfQh6NERlPzBNcQ_9qc-lXgrXTG9_TPJCdO4gln76ojmyQlH4K-QoOjjTwZnsAwLxeWfXG18XPx4vc2DeJQZyE4m4CQhE6TaYzhfTdt0uw-ytKFx7OzD_361hUUL9vwtKnzB0Abm-0x6EuZm05ToyZCEanTHMkCHPXRYH7-8MbOiGJG8RqVKulfyYB2brjiwt6W9jBeQsrCthjcAukUASv8armrFIAuj4LqTWiwkb3_WtR4VzcsNY4CkAFlRl6J_3Jkf30D-TjmwbX3lvSnNuhu3_DsHyQGMTmTYhYjDSxx39Nias5VCHnwfZjiwSopB_PcgxLS_qsDTv6k09YXCltauBz10lWN9pZ6FxPIm0aOHl3o- -SofJmFm00]--></g></svg>