<?xml version="1.0" encoding="us-ascii" standalone="no"?><svg xmlns="http://www.w3.org/2000/svg" xmlns:xlink="http://www.w3.org/1999/xlink" contentStyleType="text/css" height="2263px" preserveAspectRatio="none" style="width:1313px;height:2263px;background:#FEFEFE;" version="1.1" viewBox="0 0 1313 2263" width="1313px" zoomAndPan="magnify"><defs/><g><rect fill="#FEFEFE" height="2263" style="stroke:none;stroke-width:1.0;" width="1313" x="0" y="0"/><text fill="#000000" font-family="Verdana" font-size="22" font-weight="bold" lengthAdjust="spacing" textLength="477" x="413.75" y="37.1182">&#30450;&#20154;&#23548;&#33322;&#31995;&#32479; - &#19977;&#32447;&#31243;&#24322;&#27493;&#26550;&#26500;&#35774;&#35745; (&#32452;&#20214;&#35270;&#22270;)</text><!--cluster ReaderThread ????--><g id="cluster_ReaderThread &#35835;&#24103;&#32447;&#31243;"><path d="M614,58.7373 L786,58.7373 A3.75,3.75 0 0 1 788.5,61.2373 L795.5,81.752 L796,81.752 A2.5,2.5 0 0 1 798.5,84.252 L798.5,313.2373 A2.5,2.5 0 0 1 796,315.7373 L614,315.7373 A2.5,2.5 0 0 1 611.5,313.2373 L611.5,61.2373 A2.5,2.5 0 0 1 614,58.7373 " fill="#FFE082" style="stroke:#000000;stroke-width:1.0;"/><line style="stroke:#000000;stroke-width:1.0;" x1="611.5" x2="795.5" y1="81.752" y2="81.752"/><text fill="#000000" font-family="Verdana" font-size="14" font-weight="bold" lengthAdjust="spacing" textLength="171" x="615.5" y="74.8125">ReaderThread &#35835;&#24103;&#32447;&#31243;</text></g><!--cluster InferenceThread ???? (??)--><g id="cluster_InferenceThread &#25512;&#29702;&#32447;&#31243; (&#26680;&#24515;)"><path d="M155,512.7373 L397,512.7373 A3.75,3.75 0 0 1 399.5,515.2373 L406.5,535.752 L819,535.752 A2.5,2.5 0 0 1 821.5,538.252 L821.5,978.7373 A2.5,2.5 0 0 1 819,981.2373 L155,981.2373 A2.5,2.5 0 0 1 152.5,978.7373 L152.5,515.2373 A2.5,2.5 0 0 1 155,512.7373 " fill="#FFCCBC" style="stroke:#000000;stroke-width:1.0;"/><line style="stroke:#000000;stroke-width:1.0;" x1="152.5" x2="406.5" y1="535.752" y2="535.752"/><text fill="#000000" font-family="Verdana" font-size="14" font-weight="bold" lengthAdjust="spacing" textLength="241" x="156.5" y="528.8125">InferenceThread &#25512;&#29702;&#32447;&#31243; (&#26680;&#24515;)</text></g><!--cluster DisplayThread ????--><g id="cluster_DisplayThread &#26174;&#31034;&#32447;&#31243;"><path d="M341,1274.7373 L513,1274.7373 A3.75,3.75 0 0 1 515.5,1277.2373 L522.5,1297.752 L540,1297.752 A2.5,2.5 0 0 1 542.5,1300.252 L542.5,1811.2373 A2.5,2.5 0 0 1 540,1813.7373 L341,1813.7373 A2.5,2.5 0 0 1 338.5,1811.2373 L338.5,1277.2373 A2.5,2.5 0 0 1 341,1274.7373 " fill="#FFE082" style="stroke:#000000;stroke-width:1.0;"/><line style="stroke:#000000;stroke-width:1.0;" x1="338.5" x2="522.5" y1="1297.752" y2="1297.752"/><text fill="#000000" font-family="Verdana" font-size="14" font-weight="bold" lengthAdjust="spacing" textLength="171" x="342.5" y="1290.8125">DisplayThread &#26174;&#31034;&#32447;&#31243;</text></g><!--entity vc--><g id="elem_vc"><rect fill="#E1F5FE" height="64.0293" rx="2.5" ry="2.5" style="stroke:#01579B;stroke-width:1.0;" width="135" x="628" y="94.7373"/><rect fill="#E1F5FE" height="10" style="stroke:#01579B;stroke-width:1.0;" width="15" x="743" y="99.7373"/><rect fill="#E1F5FE" height="2" style="stroke:#01579B;stroke-width:1.0;" width="4" x="741" y="101.7373"/><rect fill="#E1F5FE" height="2" style="stroke:#01579B;stroke-width:1.0;" width="4" x="741" y="105.7373"/><text fill="#000000" font-family="Verdana" font-size="14" lengthAdjust="spacing" textLength="95" x="643" y="128.8125">VideoCapture</text><text fill="#000000" font-family="Verdana" font-size="14" lengthAdjust="spacing" textLength="56" x="643" y="145.8271">&#35270;&#39057;&#21477;&#26564;</text></g><!--entity reader--><g id="elem_reader"><rect fill="#E1F5FE" height="64.0293" rx="2.5" ry="2.5" style="stroke:#01579B;stroke-width:1.0;" width="115" x="633" y="235.7373"/><rect fill="#E1F5FE" height="10" style="stroke:#01579B;stroke-width:1.0;" width="15" x="728" y="240.7373"/><rect fill="#E1F5FE" height="2" style="stroke:#01579B;stroke-width:1.0;" width="4" x="726" y="242.7373"/><rect fill="#E1F5FE" height="2" style="stroke:#01579B;stroke-width:1.0;" width="4" x="726" y="246.7373"/><text fill="#000000" font-family="Verdana" font-size="14" lengthAdjust="spacing" textLength="75" x="648" y="269.8125">Read Loop</text><text fill="#000000" font-family="Verdana" font-size="14" lengthAdjust="spacing" textLength="56" x="648" y="286.8271">&#35835;&#21462;&#24490;&#29615;</text></g><!--entity model1--><g id="elem_model1"><rect fill="#FFF9C4" height="81.0439" rx="2.5" ry="2.5" style="stroke:#01579B;stroke-width:1.0;" width="135" x="413" y="548.7373"/><rect fill="#FFF9C4" height="10" style="stroke:#01579B;stroke-width:1.0;" width="15" x="528" y="553.7373"/><rect fill="#FFF9C4" height="2" style="stroke:#01579B;stroke-width:1.0;" width="4" x="526" y="555.7373"/><rect fill="#FFF9C4" height="2" style="stroke:#01579B;stroke-width:1.0;" width="4" x="526" y="559.7373"/><text fill="#000000" font-family="Verdana" font-size="14" lengthAdjust="spacing" textLength="49" x="428" y="582.8125">Model1</text><text fill="#000000" font-family="Verdana" font-size="14" lengthAdjust="spacing" textLength="95" x="428" y="599.8271">YOLO&#30450;&#36947;&#26816;&#27979;</text><text fill="#000000" font-family="Verdana" font-size="14" lengthAdjust="spacing" textLength="39" x="428" y="616.8418">20ms</text></g><!--entity model3--><g id="elem_model3"><rect fill="#FFF9C4" height="81.0439" rx="2.5" ry="2.5" style="stroke:#01579B;stroke-width:1.0;" width="131" x="583" y="548.7373"/><rect fill="#FFF9C4" height="10" style="stroke:#01579B;stroke-width:1.0;" width="15" x="694" y="553.7373"/><rect fill="#FFF9C4" height="2" style="stroke:#01579B;stroke-width:1.0;" width="4" x="692" y="555.7373"/><rect fill="#FFF9C4" height="2" style="stroke:#01579B;stroke-width:1.0;" width="4" x="692" y="559.7373"/><text fill="#000000" font-family="Verdana" font-size="14" lengthAdjust="spacing" textLength="49" x="598" y="582.8125">Model3</text><text fill="#000000" font-family="Verdana" font-size="14" lengthAdjust="spacing" textLength="91" x="598" y="599.8271">Fight&#20914;&#31361;&#26816;&#27979;</text><text fill="#000000" font-family="Verdana" font-size="14" lengthAdjust="spacing" textLength="39" x="598" y="616.8418">15ms</text></g><!--entity phase1_out--><g id="elem_phase1_out"><rect fill="#B3E5FC" height="64.0293" rx="2.5" ry="2.5" style="stroke:#01579B;stroke-width:1.0;" width="146" x="484.5" y="735.2373"/><rect fill="#B3E5FC" height="10" style="stroke:#01579B;stroke-width:1.0;" width="15" x="610.5" y="740.2373"/><rect fill="#B3E5FC" height="2" style="stroke:#01579B;stroke-width:1.0;" width="4" x="608.5" y="742.2373"/><rect fill="#B3E5FC" height="2" style="stroke:#01579B;stroke-width:1.0;" width="4" x="608.5" y="746.2373"/><text fill="#000000" font-family="Verdana" font-size="14" lengthAdjust="spacing" textLength="106" x="499.5" y="769.3125">Phase1&#32467;&#26524;&#22788;&#29702;</text><text fill="#000000" font-family="Verdana" font-size="14" lengthAdjust="spacing" textLength="95" x="499.5" y="786.3271">&#32472;&#21046;&#32418;&#26694;+&#34013;&#26694;</text></g><!--entity model2--><g id="elem_model2"><rect fill="#FFF59D" height="81.0439" rx="2.5" ry="2.5" style="stroke:#01579B;stroke-width:1.0;" width="96" x="353.5" y="726.7373"/><rect fill="#FFF59D" height="10" style="stroke:#01579B;stroke-width:1.0;" width="15" x="429.5" y="731.7373"/><rect fill="#FFF59D" height="2" style="stroke:#01579B;stroke-width:1.0;" width="4" x="427.5" y="733.7373"/><rect fill="#FFF59D" height="2" style="stroke:#01579B;stroke-width:1.0;" width="4" x="427.5" y="737.7373"/><text fill="#000000" font-family="Verdana" font-size="14" lengthAdjust="spacing" textLength="49" x="368.5" y="760.8125">Model2</text><text fill="#000000" font-family="Verdana" font-size="14" lengthAdjust="spacing" textLength="56" x="368.5" y="777.8271">&#22330;&#26223;&#20998;&#31867;</text><text fill="#000000" font-family="Verdana" font-size="14" lengthAdjust="spacing" textLength="48" x="368.5" y="794.8418">200ms</text></g><!--entity phase2_out--><g id="elem_phase2_out"><rect fill="#B3E5FC" height="64.0293" rx="2.5" ry="2.5" style="stroke:#01579B;stroke-width:1.0;" width="146" x="367.5" y="901.2373"/><rect fill="#B3E5FC" height="10" style="stroke:#01579B;stroke-width:1.0;" width="15" x="493.5" y="906.2373"/><rect fill="#B3E5FC" height="2" style="stroke:#01579B;stroke-width:1.0;" width="4" x="491.5" y="908.2373"/><rect fill="#B3E5FC" height="2" style="stroke:#01579B;stroke-width:1.0;" width="4" x="491.5" y="912.2373"/><text fill="#000000" font-family="Verdana" font-size="14" lengthAdjust="spacing" textLength="106" x="382.5" y="935.3125">Phase2&#32467;&#26524;&#22788;&#29702;</text><text fill="#000000" font-family="Verdana" font-size="14" lengthAdjust="spacing" textLength="95" x="382.5" y="952.3271">&#32472;&#21046;&#40644;&#26694;+&#26631;&#31614;</text></g><!--entity decision--><g id="elem_decision"><rect fill="#C8E6C9" height="64.0293" rx="2.5" ry="2.5" style="stroke:#01579B;stroke-width:1.0;" width="145" x="187" y="901.2373"/><rect fill="#C8E6C9" height="10" style="stroke:#01579B;stroke-width:1.0;" width="15" x="312" y="906.2373"/><rect fill="#C8E6C9" height="2" style="stroke:#01579B;stroke-width:1.0;" width="4" x="310" y="908.2373"/><rect fill="#C8E6C9" height="2" style="stroke:#01579B;stroke-width:1.0;" width="4" x="310" y="912.2373"/><text fill="#000000" font-family="Verdana" font-size="14" lengthAdjust="spacing" textLength="105" x="202" y="935.3125">DecisionEngine</text><text fill="#000000" font-family="Verdana" font-size="14" lengthAdjust="spacing" textLength="56" x="202" y="952.3271">&#26465;&#20214;&#21028;&#26029;</text></g><!--entity interrupt--><g id="elem_interrupt"><rect fill="#FFCCCC" height="64.0293" rx="2.5" ry="2.5" style="stroke:#01579B;stroke-width:1.0;" width="139" x="666" y="735.2373"/><rect fill="#FFCCCC" height="10" style="stroke:#01579B;stroke-width:1.0;" width="15" x="785" y="740.2373"/><rect fill="#FFCCCC" height="2" style="stroke:#01579B;stroke-width:1.0;" width="4" x="783" y="742.2373"/><rect fill="#FFCCCC" height="2" style="stroke:#01579B;stroke-width:1.0;" width="4" x="783" y="746.2373"/><text fill="#000000" font-family="Verdana" font-size="14" lengthAdjust="spacing" textLength="99" x="681" y="769.3125">FightInterrupt</text><text fill="#000000" font-family="Verdana" font-size="14" lengthAdjust="spacing" textLength="56" x="681" y="786.3271">&#32039;&#24613;&#39044;&#35686;</text></g><!--entity gen_frames--><g id="elem_gen_frames"><rect fill="#E1F5FE" height="64.0293" rx="2.5" ry="2.5" style="stroke:#01579B;stroke-width:1.0;" width="171" x="355" y="1310.7373"/><rect fill="#E1F5FE" height="10" style="stroke:#01579B;stroke-width:1.0;" width="15" x="506" y="1315.7373"/><rect fill="#E1F5FE" height="2" style="stroke:#01579B;stroke-width:1.0;" width="4" x="504" y="1317.7373"/><rect fill="#E1F5FE" height="2" style="stroke:#01579B;stroke-width:1.0;" width="4" x="504" y="1321.7373"/><text fill="#000000" font-family="Verdana" font-size="14" lengthAdjust="spacing" textLength="131" x="370" y="1344.8125">generate_frames()</text><text fill="#000000" font-family="Verdana" font-size="14" lengthAdjust="spacing" textLength="56" x="370" y="1361.8271">&#24103;&#29983;&#25104;&#22120;</text></g><!--entity draw--><g id="elem_draw"><rect fill="#E1F5FE" height="64.0293" rx="2.5" ry="2.5" style="stroke:#01579B;stroke-width:1.0;" width="125" x="378" y="1451.7373"/><rect fill="#E1F5FE" height="10" style="stroke:#01579B;stroke-width:1.0;" width="15" x="483" y="1456.7373"/><rect fill="#E1F5FE" height="2" style="stroke:#01579B;stroke-width:1.0;" width="4" x="481" y="1458.7373"/><rect fill="#E1F5FE" height="2" style="stroke:#01579B;stroke-width:1.0;" width="4" x="481" y="1462.7373"/><text fill="#000000" font-family="Verdana" font-size="14" lengthAdjust="spacing" textLength="85" x="393" y="1485.8125">Draw Boxes</text><text fill="#000000" font-family="Verdana" font-size="14" lengthAdjust="spacing" textLength="56" x="393" y="1502.8271">&#32472;&#21046;&#26631;&#27880;</text></g><!--entity encode--><g id="elem_encode"><rect fill="#E1F5FE" height="64.0293" rx="2.5" ry="2.5" style="stroke:#01579B;stroke-width:1.0;" width="130" x="375.5" y="1592.7373"/><rect fill="#E1F5FE" height="10" style="stroke:#01579B;stroke-width:1.0;" width="15" x="485.5" y="1597.7373"/><rect fill="#E1F5FE" height="2" style="stroke:#01579B;stroke-width:1.0;" width="4" x="483.5" y="1599.7373"/><rect fill="#E1F5FE" height="2" style="stroke:#01579B;stroke-width:1.0;" width="4" x="483.5" y="1603.7373"/><text fill="#000000" font-family="Verdana" font-size="14" lengthAdjust="spacing" textLength="90" x="390.5" y="1626.8125">JPEG Encode</text><text fill="#000000" font-family="Verdana" font-size="14" lengthAdjust="spacing" textLength="28" x="390.5" y="1643.8271">&#32534;&#30721;</text></g><!--entity stream--><g id="elem_stream"><rect fill="#E1F5FE" height="64.0293" rx="2.5" ry="2.5" style="stroke:#01579B;stroke-width:1.0;" width="146" x="367.5" y="1733.7373"/><rect fill="#E1F5FE" height="10" style="stroke:#01579B;stroke-width:1.0;" width="15" x="493.5" y="1738.7373"/><rect fill="#E1F5FE" height="2" style="stroke:#01579B;stroke-width:1.0;" width="4" x="491.5" y="1740.7373"/><rect fill="#E1F5FE" height="2" style="stroke:#01579B;stroke-width:1.0;" width="4" x="491.5" y="1744.7373"/><text fill="#000000" font-family="Verdana" font-size="14" lengthAdjust="spacing" textLength="106" x="382.5" y="1767.8125">Stream Output</text><text fill="#000000" font-family="Verdana" font-size="14" lengthAdjust="spacing" textLength="70" x="382.5" y="1784.8271">&#27969;&#23186;&#20307;&#25512;&#36865;</text></g><!--entity frame_q--><g id="elem_frame_q"><rect fill="#C8E6C9" height="71.0439" rx="35" ry="35" style="stroke:#2E7D32;stroke-width:1.0;" width="108" x="510.5" y="378.7373"/><text fill="#000000" font-family="Verdana" font-size="14" lengthAdjust="spacing" textLength="88" x="520.5" y="402.8125">FrameQueue</text><text fill="#000000" font-family="Verdana" font-size="14" lengthAdjust="spacing" textLength="42" x="520.5" y="419.8271">&#24103;&#38431;&#21015;</text><text fill="#000000" font-family="Verdana" font-size="14" lengthAdjust="spacing" textLength="52" x="520.5" y="436.8418">&#23481;&#37327;:30</text></g><g id="elem_GMN6"><path d="M654,385.7373 L654,410.2373 L618.62,414.2373 L654,418.2373 L654,443.1353 A0,0 0 0 0 654,443.1353 L801,443.1353 A0,0 0 0 0 801,443.1353 L801,395.7373 L791,385.7373 L654,385.7373 A0,0 0 0 0 654,385.7373 " fill="#FFFFFF" style="stroke:#000000;stroke-width:1.0;"/><path d="M791,385.7373 L791,395.7373 L801,395.7373 L791,385.7373 " fill="#FFFFFF" style="stroke:#000000;stroke-width:1.0;"/><text fill="#000000" font-family="Verdana" font-size="13" lengthAdjust="spacing" textLength="91" x="660" y="403.8071">maxsize: 30&#24103;</text><text fill="#000000" font-family="Verdana" font-size="13" lengthAdjust="spacing" textLength="126" x="660" y="419.6064">&#26684;&#24335;: 640&#215;480 RGB</text><text fill="#000000" font-family="Verdana" font-size="13" lengthAdjust="spacing" textLength="109" x="660" y="435.4058">&#20869;&#23384;: ~3-5MB/&#24103;</text></g><!--entity result_q--><g id="elem_result_q"><rect fill="#C8E6C9" height="71.0439" rx="35" ry="35" style="stroke:#2E7D32;stroke-width:1.0;" width="109" x="386" y="1131.7373"/><text fill="#000000" font-family="Verdana" font-size="14" lengthAdjust="spacing" textLength="89" x="396" y="1155.8125">ResultQueue</text><text fill="#000000" font-family="Verdana" font-size="14" lengthAdjust="spacing" textLength="56" x="396" y="1172.8271">&#32467;&#26524;&#38431;&#21015;</text><text fill="#000000" font-family="Verdana" font-size="14" lengthAdjust="spacing" textLength="52" x="396" y="1189.8418">&#23481;&#37327;:30</text></g><g id="elem_GMN18"><path d="M530,1122.7373 L530,1163.2373 L495.29,1167.2373 L530,1171.2373 L530,1211.7339 A0,0 0 0 0 530,1211.7339 L725,1211.7339 A0,0 0 0 0 725,1211.7339 L725,1132.7373 L715,1122.7373 L530,1122.7373 A0,0 0 0 0 530,1122.7373 " fill="#FFFFFF" style="stroke:#000000;stroke-width:1.0;"/><path d="M715,1122.7373 L715,1132.7373 L725,1132.7373 L715,1122.7373 " fill="#FFFFFF" style="stroke:#000000;stroke-width:1.0;"/><text fill="#000000" font-family="Verdana" font-size="13" lengthAdjust="spacing" textLength="73" x="536" y="1140.8071">Partial&#32467;&#26524;:</text><text fill="#000000" font-family="Verdana" font-size="13" lengthAdjust="spacing" textLength="118" x="536" y="1156.6064">{model1, model3}</text><text fill="#000000" font-family="Verdana" font-size="13" lengthAdjust="spacing" textLength="5" x="536" y="1172.4058">&#160;</text><text fill="#000000" font-family="Verdana" font-size="13" lengthAdjust="spacing" textLength="54" x="536" y="1188.2051">Full&#32467;&#26524;:</text><text fill="#000000" font-family="Verdana" font-size="13" lengthAdjust="spacing" textLength="174" x="536" y="1204.0044">{model1, model2, model3}</text></g><!--entity browser--><g id="elem_browser"><ellipse cx="440.5" cy="1885.7373" fill="#FFFFFF" rx="8" ry="8" style="stroke:#000000;stroke-width:1.0;"/><path d="M440.5,1893.7373 L440.5,1920.7373 M427.5,1901.7373 L453.5,1901.7373 M440.5,1920.7373 L427.5,1935.7373 M440.5,1920.7373 L453.5,1935.7373 " fill="none" style="stroke:#000000;stroke-width:1.0;"/><text fill="#000000" font-family="Verdana" font-size="14" lengthAdjust="spacing" textLength="58" x="411.5" y="1951.8125">Browser</text><text fill="#000000" font-family="Verdana" font-size="14" lengthAdjust="spacing" textLength="42" x="411.5" y="1968.8271">&#27983;&#35272;&#22120;</text></g><g id="elem_GMN45"><path d="M980,722.7373 L980,811.7339 L1143,811.7339 L1143,732.7373 L1133,722.7373 L980,722.7373 " fill="#FFFFFF" style="stroke:#000000;stroke-width:1.0;"/><path d="M1133,722.7373 L1133,732.7373 L1143,732.7373 L1133,722.7373 " fill="#FFFFFF" style="stroke:#000000;stroke-width:1.0;"/><text fill="#000000" font-family="Verdana" font-size="13" lengthAdjust="spacing" textLength="122" x="986" y="740.8071">&#9889; Phase1 &#24555;&#36895;&#25512;&#29702;</text><text fill="#000000" font-family="Verdana" font-size="13" lengthAdjust="spacing" textLength="142" x="986" y="756.6064">Model1 + Model3 &#24182;&#34892;</text><text fill="#000000" font-family="Verdana" font-size="13" lengthAdjust="spacing" textLength="84" x="986" y="772.4058">&#24635;&#32791;&#26102;: 20ms</text><text fill="#000000" font-family="Verdana" font-size="13" lengthAdjust="spacing" textLength="118" x="986" y="788.2051">&#31435;&#21363;&#25512;&#36865;&#21040;result_q</text><text fill="#000000" font-family="Verdana" font-size="13" lengthAdjust="spacing" textLength="85" x="986" y="804.0044">&#19981;&#31561;&#24453;Model2</text></g><g id="elem_GMN48"><path d="M986,888.7373 L986,977.7339 L1129,977.7339 L1129,898.7373 L1119,888.7373 L986,888.7373 " fill="#FFFFFF" style="stroke:#000000;stroke-width:1.0;"/><path d="M1119,888.7373 L1119,898.7373 L1129,898.7373 L1119,888.7373 " fill="#FFFFFF" style="stroke:#000000;stroke-width:1.0;"/><text fill="#000000" font-family="Verdana" font-size="13" lengthAdjust="spacing" textLength="122" x="992" y="906.8071">&#128034; Phase2 &#32531;&#24930;&#25512;&#29702;</text><text fill="#000000" font-family="Verdana" font-size="13" lengthAdjust="spacing" textLength="103" x="992" y="922.6064">Model2 &#22330;&#26223;&#20998;&#31867;</text><text fill="#000000" font-family="Verdana" font-size="13" lengthAdjust="spacing" textLength="79" x="992" y="938.4058">&#32791;&#26102;: 200ms</text><text fill="#000000" font-family="Verdana" font-size="13" lengthAdjust="spacing" textLength="52" x="992" y="954.2051">&#24322;&#27493;&#34917;&#24103;</text><text fill="#000000" font-family="Verdana" font-size="13" lengthAdjust="spacing" textLength="86" x="992" y="970.0044">&#19981;&#38459;&#22622;Phase1</text></g><g id="elem_GMN51"><path d="M459.5,239.2373 L459.5,296.6353 A0,0 0 0 0 459.5,296.6353 L530.55,296.6353 L555.65,378.6673 L538.55,296.6353 L595.5,296.6353 A0,0 0 0 0 595.5,296.6353 L595.5,249.2373 L585.5,239.2373 L459.5,239.2373 A0,0 0 0 0 459.5,239.2373 " fill="#FFFFFF" style="stroke:#000000;stroke-width:1.0;"/><path d="M585.5,239.2373 L585.5,249.2373 L595.5,249.2373 L585.5,239.2373 " fill="#FFFFFF" style="stroke:#000000;stroke-width:1.0;"/><text fill="#000000" font-family="Verdana" font-size="13" lengthAdjust="spacing" textLength="78" x="465.5" y="257.3071">&#128260; &#24322;&#27493;&#38431;&#21015;1</text><text fill="#000000" font-family="Verdana" font-size="13" lengthAdjust="spacing" textLength="97" x="465.5" y="273.1064">Reader&#24555;&#36895;&#22635;&#28385;</text><text fill="#000000" font-family="Verdana" font-size="13" lengthAdjust="spacing" textLength="115" x="465.5" y="288.9058">Inference&#25345;&#32493;&#28040;&#36153;</text></g><g id="elem_GMN54"><path d="M11,896.7373 L11,969.9346 L136,969.9346 L136,906.7373 L126,896.7373 L11,896.7373 " fill="#FFFFFF" style="stroke:#000000;stroke-width:1.0;"/><path d="M126,896.7373 L126,906.7373 L136,906.7373 L126,896.7373 " fill="#FFFFFF" style="stroke:#000000;stroke-width:1.0;"/><text fill="#000000" font-family="Verdana" font-size="13" lengthAdjust="spacing" textLength="78" x="17" y="914.8071">&#128260; &#24322;&#27493;&#38431;&#21015;2</text><text fill="#000000" font-family="Verdana" font-size="13" lengthAdjust="spacing" textLength="93" x="17" y="930.6064">Partial&#24555;&#36895;&#20837;&#38431;</text><text fill="#000000" font-family="Verdana" font-size="13" lengthAdjust="spacing" textLength="74" x="17" y="946.4058">Full&#24322;&#27493;&#34917;&#20805;</text><text fill="#000000" font-family="Verdana" font-size="13" lengthAdjust="spacing" textLength="104" x="17" y="962.2051">Browser&#25345;&#32493;&#28040;&#36153;</text></g><g id="elem_GMN57"><path d="M838,888.7373 L838,977.7339 L951,977.7339 L951,898.7373 L941,888.7373 L838,888.7373 " fill="#FFFFFF" style="stroke:#000000;stroke-width:1.0;"/><path d="M941,888.7373 L941,898.7373 L951,898.7373 L941,888.7373 " fill="#FFFFFF" style="stroke:#000000;stroke-width:1.0;"/><text fill="#000000" font-family="Verdana" font-size="13" lengthAdjust="spacing" textLength="70" x="844" y="906.8071">&#127919; &#26465;&#20214;&#21028;&#26029;</text><text fill="#000000" font-family="Verdana" font-size="13" lengthAdjust="spacing" textLength="87" x="844" y="922.6064">if blind_path:</text><text fill="#000000" font-family="Verdana" font-size="13" lengthAdjust="spacing" textLength="82" x="854" y="938.4058">&#26631;&#35760;obstacle</text><text fill="#000000" font-family="Verdana" font-size="13" lengthAdjust="spacing" textLength="32" x="844" y="954.2051">else:</text><text fill="#000000" font-family="Verdana" font-size="13" lengthAdjust="spacing" textLength="52" x="854" y="970.0044">&#35814;&#32454;&#20998;&#31867;</text></g><g id="elem_GMN60"><path d="M840.5,730.7373 L840.5,763.2373 L805.11,767.2373 L840.5,771.2373 L840.5,803.9346 A0,0 0 0 0 840.5,803.9346 L944.5,803.9346 A0,0 0 0 0 944.5,803.9346 L944.5,740.7373 L934.5,730.7373 L840.5,730.7373 A0,0 0 0 0 840.5,730.7373 " fill="#FFFFFF" style="stroke:#000000;stroke-width:1.0;"/><path d="M934.5,730.7373 L934.5,740.7373 L944.5,740.7373 L934.5,730.7373 " fill="#FFFFFF" style="stroke:#000000;stroke-width:1.0;"/><text fill="#000000" font-family="Verdana" font-size="13" lengthAdjust="spacing" textLength="83" x="846.5" y="748.8071">&#128680; &#26368;&#39640;&#20248;&#20808;&#32423;</text><text fill="#000000" font-family="Verdana" font-size="13" lengthAdjust="spacing" textLength="69" x="846.5" y="764.6064">&#26816;&#27979;&#21040;fight</text><text fill="#000000" font-family="Verdana" font-size="13" lengthAdjust="spacing" textLength="52" x="846.5" y="780.4058">&#31435;&#21363;&#39044;&#35686;</text><text fill="#000000" font-family="Verdana" font-size="13" lengthAdjust="spacing" textLength="78" x="846.5" y="796.2051">&#20013;&#26029;&#20854;&#20182;&#35821;&#38899;</text></g><!--link vc to reader--><g id="link_vc_reader"><path d="M694.38,158.9273 C693.55,181.8273 692.655,206.7812 691.835,229.6512 " fill="none" id="vc-to-reader" style="stroke:#000000;stroke-width:1.0;"/><polygon fill="#000000" points="691.62,235.6473,695.9399,226.7964,691.7992,230.6505,687.9451,226.5098,691.62,235.6473" style="stroke:#000000;stroke-width:1.0;"/><text fill="#000000" font-family="Verdana" font-size="13" lengthAdjust="spacing" textLength="52" x="693.5" y="202.8071">&#35835;&#21462;&#35270;&#39057;</text></g><!--link reader to frame_q--><g id="link_reader_frame_q"><path d="M663.16,300.0873 C642.97,323.2473 619.4231,350.2449 598.5931,374.1349 " fill="none" id="reader-to-frame_q" style="stroke:#000000;stroke-width:1.0;"/><polygon fill="#000000" points="594.65,378.6573,603.5796,374.5025,597.9359,374.8887,597.5498,369.245,594.65,378.6573" style="stroke:#000000;stroke-width:1.0;"/><text fill="#000000" font-family="Verdana" font-size="13" lengthAdjust="spacing" textLength="74" x="635.5" y="345.8071">put(Frame)</text></g><!--link frame_q to model1--><g id="link_frame_q_model1"><path d="M535.45,450.0573 C528.61,459.3173 521.79,469.5873 516.5,479.7373 C505.18,501.4773 498.0537,521.7297 492.0037,542.8297 " fill="none" id="frame_q-to-model1" style="stroke:#000000;stroke-width:1.0;"/><polygon fill="#000000" points="490.35,548.5973,496.6757,541.0484,491.7281,543.791,488.9855,538.8434,490.35,548.5973" style="stroke:#000000;stroke-width:1.0;"/><text fill="#000000" font-family="Verdana" font-size="13" lengthAdjust="spacing" textLength="74" x="517.5" y="493.8071">get(Frame)</text></g><!--link frame_q to model3--><g id="link_frame_q_model3"><path d="M581.86,450.0073 C586.63,459.6273 591.79,470.0773 596.5,479.7373 C607.58,502.4573 617.2162,522.5221 627.0262,543.0821 " fill="none" id="frame_q-to-model3" style="stroke:#000000;stroke-width:1.0;"/><polygon fill="#000000" points="629.61,548.4973,629.3444,538.652,627.4568,543.9847,622.1242,542.0971,629.61,548.4973" style="stroke:#000000;stroke-width:1.0;"/><text fill="#000000" font-family="Verdana" font-size="13" lengthAdjust="spacing" textLength="74" x="604.5" y="493.8071">get(Frame)</text></g><!--link model1 to decision--><g id="link_model1_decision"><path d="M412.82,604.0073 C350.92,620.5873 262.88,655.0873 221.5,722.7373 C187.26,778.7073 215.996,852.457 238.536,895.687 " fill="none" id="model1-to-decision" style="stroke:#000000;stroke-width:1.0;"/><polygon fill="#000000" points="241.31,901.0073,240.6959,891.1776,238.9984,896.5738,233.6022,894.8762,241.31,901.0073" style="stroke:#000000;stroke-width:1.0;"/><text fill="#000000" font-family="Verdana" font-size="13" lengthAdjust="spacing" textLength="113" x="222.5" y="772.8071">blind_path_result</text></g><!--link model1 to phase1_out--><g id="link_model1_phase1_out"><path d="M496.15,629.8773 C503.84,648.9873 513.39,672.1573 522.5,692.7373 C528.68,706.6973 533.2636,716.553 539.5236,729.533 " fill="none" id="model1-to-phase1_out" style="stroke:#000000;stroke-width:1.0;"/><polygon fill="#000000" points="542.13,734.9373,541.8233,725.0932,539.958,730.4337,534.6175,728.5684,542.13,734.9373" style="stroke:#000000;stroke-width:1.0;"/><text fill="#000000" font-family="Verdana" font-size="13" lengthAdjust="spacing" textLength="57" x="523.5" y="681.8071">bbox&#25968;&#25454;</text></g><!--link model3 to interrupt--><g id="link_model3_interrupt"><path d="M669.98,629.7473 C675.16,639.5073 680.61,649.9573 685.5,659.7373 C698.03,684.7573 708.9552,708.0551 718.7452,729.3651 " fill="none" id="model3-to-interrupt" style="stroke:#000000;stroke-width:1.0;"/><polygon fill="#000000" points="721.25,734.8173,721.1276,724.9692,719.1627,730.2738,713.8581,728.3089,721.25,734.8173" style="stroke:#000000;stroke-width:1.0;"/><text fill="#000000" font-family="Verdana" font-size="13" lengthAdjust="spacing" textLength="75" x="701.5" y="681.8071">fight_result</text></g><!--link model3 to phase1_out--><g id="link_model3_phase1_out"><path d="M627.85,630.1773 C611.38,662.0173 591.4159,700.6477 576.2959,729.8877 " fill="none" id="model3-to-phase1_out" style="stroke:#000000;stroke-width:1.0;"/><polygon fill="#000000" points="573.54,735.2173,581.227,729.0602,575.8366,730.776,574.1208,725.3856,573.54,735.2173" style="stroke:#000000;stroke-width:1.0;"/><text fill="#000000" font-family="Verdana" font-size="13" lengthAdjust="spacing" textLength="57" x="611.5" y="681.8071">bbox&#25968;&#25454;</text></g><!--link phase1_out to result_q--><g id="link_phase1_out_result_q"><path d="M616.21,799.3573 C626.75,804.0573 637.79,808.4273 648.5,811.7373 C755.49,844.7973 1073.62,803.7173 1146.5,888.7373 C1175.57,922.6473 1174.64,954.5473 1146.5,989.2373 C965.07,1212.8473 780.39,1017.1273 512.5,1122.7373 C506.11,1125.2573 504.9633,1125.5301 498.6533,1128.8401 " fill="none" id="phase1_out-to-result_q" style="stroke:#000000;stroke-width:1.0;"/><polygon fill="#000000" points="493.34,1131.6273,503.1681,1130.9887,497.7678,1129.3046,499.4519,1123.9043,493.34,1131.6273" style="stroke:#000000;stroke-width:1.0;"/><text fill="#000000" font-family="Verdana" font-size="13" lengthAdjust="spacing" textLength="137" x="1168.5" y="904.8071">put(Frame_PARTIAL)</text><text fill="#000000" font-family="Verdana" font-size="13" lengthAdjust="spacing" textLength="70" x="1202" y="920.6064">&#31435;&#21363;&#25512;&#36865; &#9989;</text><path d="M1200.5,929.3359 L1200.5,970.3359 L1273.5,970.3359 L1273.5,939.3359 L1263.5,929.3359 L1200.5,929.3359 " fill="#FFFFFF" style="stroke:#000000;stroke-width:1.0;"/><path d="M1263.5,929.3359 L1263.5,939.3359 L1273.5,939.3359 L1263.5,929.3359 " fill="#FFFFFF" style="stroke:#000000;stroke-width:1.0;"/><text fill="#000000" font-family="Verdana" font-size="13" lengthAdjust="spacing" textLength="43" x="1206.5" y="947.4058">T50ms</text><text fill="#000000" font-family="Verdana" font-size="13" lengthAdjust="spacing" textLength="52" x="1206.5" y="963.2051">&#24555;&#36895;&#21453;&#39304;</text></g><!--link model1 to model2--><g id="link_model1_model2"><path d="M440.02,629.8973 C432.53,639.0673 425.5,649.2273 420.5,659.7373 C410.61,680.5073 406.4891,699.8236 404.1991,720.5436 " fill="none" id="model1-to-model2" style="stroke:#000000;stroke-width:1.0;"/><polygon fill="#000000" points="403.54,726.5073,408.5045,718.0012,404.0893,721.5376,400.5529,717.1224,403.54,726.5073" style="stroke:#000000;stroke-width:1.0;"/><text fill="#000000" font-family="Verdana" font-size="13" lengthAdjust="spacing" textLength="78" x="421.5" y="673.8071">&#35302;&#21457;&#22330;&#26223;&#20998;&#31867;</text><text fill="#000000" font-family="Verdana" font-size="13" lengthAdjust="spacing" textLength="38" x="441.5" y="689.6064">(&#24322;&#27493;)</text></g><!--link model2 to decision--><g id="link_model2_decision"><path d="M357.99,807.8273 C347.01,818.4773 335.5,830.2473 325.5,841.7373 C309.16,860.5173 296.0747,878.2038 283.6647,896.1338 " fill="none" id="model2-to-decision" style="stroke:#000000;stroke-width:1.0;"/><polygon fill="#000000" points="280.25,901.0673,288.6611,895.9434,283.0956,896.956,282.083,891.3905,280.25,901.0673" style="stroke:#000000;stroke-width:1.0;"/><text fill="#000000" font-family="Verdana" font-size="13" lengthAdjust="spacing" textLength="84" x="326.5" y="855.8071">scene_result</text></g><!--link model2 to phase2_out--><g id="link_model2_phase2_out"><path d="M410.94,807.9373 C417.75,836.5673 425.4214,868.8302 431.7114,895.2702 " fill="none" id="model2-to-phase2_out" style="stroke:#000000;stroke-width:1.0;"/><polygon fill="#000000" points="433.1,901.1073,434.9085,891.4259,431.9428,896.2431,427.1257,893.2774,433.1,901.1073" style="stroke:#000000;stroke-width:1.0;"/><text fill="#000000" font-family="Verdana" font-size="13" lengthAdjust="spacing" textLength="57" x="422.5" y="855.8071">bbox&#25968;&#25454;</text></g><!--link phase2_out to result_q--><g id="link_phase2_out_result_q"><path d="M440.5,965.5273 C440.5,1008.8173 440.5,1080.7173 440.5,1125.6773 " fill="none" id="phase2_out-to-result_q" style="stroke:#000000;stroke-width:1.0;"/><polygon fill="#000000" points="440.5,1131.6773,444.5,1122.6773,440.5,1126.6773,436.5,1122.6773,440.5,1131.6773" style="stroke:#000000;stroke-width:1.0;"/><text fill="#000000" font-family="Verdana" font-size="13" lengthAdjust="spacing" textLength="113" x="441.5" y="1021.8071">put(Frame_FULL)</text><text fill="#000000" font-family="Verdana" font-size="13" lengthAdjust="spacing" textLength="44" x="476" y="1037.6064">&#34917;&#24103; &#129000;</text><path d="M461.5,1046.3359 L461.5,1087.3359 L534.5,1087.3359 L534.5,1056.3359 L524.5,1046.3359 L461.5,1046.3359 " fill="#FFFFFF" style="stroke:#000000;stroke-width:1.0;"/><path d="M524.5,1046.3359 L524.5,1056.3359 L534.5,1056.3359 L524.5,1046.3359 " fill="#FFFFFF" style="stroke:#000000;stroke-width:1.0;"/><text fill="#000000" font-family="Verdana" font-size="13" lengthAdjust="spacing" textLength="51" x="467.5" y="1064.4058">T250ms</text><text fill="#000000" font-family="Verdana" font-size="13" lengthAdjust="spacing" textLength="52" x="467.5" y="1080.2051">&#23436;&#25972;&#32467;&#26524;</text></g><!--link result_q to gen_frames--><g id="link_result_q_gen_frames"><path d="M440.5,1202.9273 C440.5,1234.3773 440.5,1274.3073 440.5,1304.5973 " fill="none" id="result_q-to-gen_frames" style="stroke:#000000;stroke-width:1.0;"/><polygon fill="#000000" points="440.5,1310.5973,444.5,1301.5973,440.5,1305.5973,436.5,1301.5973,440.5,1310.5973" style="stroke:#000000;stroke-width:1.0;"/><text fill="#000000" font-family="Verdana" font-size="13" lengthAdjust="spacing" textLength="74" x="441.5" y="1255.8071">get(Result)</text></g><!--link gen_frames to draw--><g id="link_gen_frames_draw"><path d="M440.5,1374.9273 C440.5,1397.8273 440.5,1422.7773 440.5,1445.6473 " fill="none" id="gen_frames-to-draw" style="stroke:#000000;stroke-width:1.0;"/><polygon fill="#000000" points="440.5,1451.6473,444.5,1442.6473,440.5,1446.6473,436.5,1442.6473,440.5,1451.6473" style="stroke:#000000;stroke-width:1.0;"/><text fill="#000000" font-family="Verdana" font-size="13" lengthAdjust="spacing" textLength="65" x="441.5" y="1418.8071">&#32467;&#26500;&#21270;&#25968;&#25454;</text></g><!--link draw to encode--><g id="link_draw_encode"><path d="M440.5,1515.9273 C440.5,1538.8273 440.5,1563.7773 440.5,1586.6473 " fill="none" id="draw-to-encode" style="stroke:#000000;stroke-width:1.0;"/><polygon fill="#000000" points="440.5,1592.6473,444.5,1583.6473,440.5,1587.6473,436.5,1583.6473,440.5,1592.6473" style="stroke:#000000;stroke-width:1.0;"/><text fill="#000000" font-family="Verdana" font-size="13" lengthAdjust="spacing" textLength="52" x="441.5" y="1559.8071">&#32472;&#21046;&#23436;&#25104;</text></g><!--link encode to stream--><g id="link_encode_stream"><path d="M440.5,1656.9273 C440.5,1679.8273 440.5,1704.7773 440.5,1727.6473 " fill="none" id="encode-to-stream" style="stroke:#000000;stroke-width:1.0;"/><polygon fill="#000000" points="440.5,1733.6473,444.5,1724.6473,440.5,1728.6473,436.5,1724.6473,440.5,1733.6473" style="stroke:#000000;stroke-width:1.0;"/><text fill="#000000" font-family="Verdana" font-size="13" lengthAdjust="spacing" textLength="73" x="441.5" y="1700.8071">JPEG bytes</text></g><!--link stream to browser--><g id="link_stream_browser"><path d="M440.5,1798.0273 C440.5,1820.5073 440.5,1845.1873 440.5,1870.5573 " fill="none" id="stream-to-browser" style="stroke:#000000;stroke-width:1.0;"/><polygon fill="#000000" points="440.5,1876.5573,444.5,1867.5573,440.5,1871.5573,436.5,1867.5573,440.5,1876.5573" style="stroke:#000000;stroke-width:1.0;"/><text fill="#000000" font-family="Verdana" font-size="13" lengthAdjust="spacing" textLength="65" x="441.5" y="1843.8071">&#23454;&#26102;&#35270;&#39057;&#27969;</text></g><!--link model1 to GMN45--><g id="link_model1_GMN45"><path d="M548,623.7773 C553.84,626.0173 559.72,628.0473 565.5,629.7373 C660.19,657.5073 689.62,636.3973 785.5,659.7373 C866.63,679.4873 884.89,691.9173 962.5,722.7373 C968.17,724.9873 974,727.3673 979.85,729.8073 " fill="none" id="model1-GMN45" style="stroke:#000000;stroke-width:1.0;stroke-dasharray:7.0,7.0;"/></g><!--link model2 to GMN48--><g id="link_model2_GMN48"><path d="M449.61,803.2373 C455.45,806.4873 461.48,809.4173 467.5,811.7373 C677.73,892.6973 753.52,821.3973 968.5,888.7373 C974.24,890.5373 980.08,892.6573 985.88,894.9773 " fill="none" id="model2-GMN48" style="stroke:#000000;stroke-width:1.0;stroke-dasharray:7.0,7.0;"/></g><!--link GMN54 to result_q--><g id="link_GMN54_result_q"><path d="M123.78,969.8773 C133.26,976.4173 143.13,983.1073 152.5,989.2373 C232.54,1041.6273 327.41,1099.0673 385.78,1133.8773 " fill="none" id="GMN54-result_q" style="stroke:#000000;stroke-width:1.0;stroke-dasharray:7.0,7.0;"/></g><!--link GMN57 to decision--><g id="link_GMN57_decision"><path d="M858.53,888.7073 C843.47,873.4873 824.66,858.2773 804,850.2373 C713.71,815.0973 459.77,819.1573 368,850.2373 C338.12,860.3573 310.01,882.3573 289.88,901.1773 " fill="none" id="GMN57-decision" style="stroke:#000000;stroke-width:1.0;stroke-dasharray:7.0,7.0;"/></g><rect fill="none" height="269.2197" id="_legend" rx="7.5" ry="7.5" style="stroke:#000000;stroke-width:1.0;" width="217" x="1077.5" y="1981.3271"/><text fill="#000000" font-family="Verdana" font-size="14" font-weight="bold" lengthAdjust="spacing" textLength="28" x="1087.5" y="2002.4023">&#39068;&#33394;</text><text fill="#000000" font-family="Verdana" font-size="14" font-weight="bold" lengthAdjust="spacing" textLength="28" x="1125.5" y="2002.4023">&#35828;&#26126;</text><rect fill="#FFE082" height="17.0146" style="stroke:none;stroke-width:1.0;" width="38" x="1082.5" y="2005.3418"/><text fill="#000000" font-family="Verdana" font-size="14" lengthAdjust="spacing" textLength="5" x="1082.5" y="2019.417">&#160;</text><text fill="#000000" font-family="Verdana" font-size="14" lengthAdjust="spacing" textLength="56" x="1125.5" y="2019.417">&#32447;&#31243;&#32452;&#20214;</text><rect fill="#FFCCBC" height="17.0146" style="stroke:none;stroke-width:1.0;" width="38" x="1082.5" y="2022.3564"/><text fill="#000000" font-family="Verdana" font-size="14" lengthAdjust="spacing" textLength="5" x="1082.5" y="2036.4316">&#160;</text><text fill="#000000" font-family="Verdana" font-size="14" lengthAdjust="spacing" textLength="56" x="1125.5" y="2036.4316">&#25512;&#29702;&#24341;&#25806;</text><rect fill="#FFF9C4" height="17.0146" style="stroke:none;stroke-width:1.0;" width="38" x="1082.5" y="2039.3711"/><text fill="#000000" font-family="Verdana" font-size="14" lengthAdjust="spacing" textLength="5" x="1082.5" y="2053.4463">&#160;</text><text fill="#000000" font-family="Verdana" font-size="14" lengthAdjust="spacing" textLength="56" x="1125.5" y="2053.4463">&#24555;&#36895;&#27169;&#22411;</text><rect fill="#FFF59D" height="17.0146" style="stroke:none;stroke-width:1.0;" width="38" x="1082.5" y="2056.3857"/><text fill="#000000" font-family="Verdana" font-size="14" lengthAdjust="spacing" textLength="5" x="1082.5" y="2070.4609">&#160;</text><text fill="#000000" font-family="Verdana" font-size="14" lengthAdjust="spacing" textLength="56" x="1125.5" y="2070.4609">&#32531;&#24930;&#27169;&#22411;</text><rect fill="#B3E5FC" height="17.0146" style="stroke:none;stroke-width:1.0;" width="38" x="1082.5" y="2073.4004"/><text fill="#000000" font-family="Verdana" font-size="14" lengthAdjust="spacing" textLength="5" x="1082.5" y="2087.4756">&#160;</text><text fill="#000000" font-family="Verdana" font-size="14" lengthAdjust="spacing" textLength="56" x="1125.5" y="2087.4756">&#32467;&#26524;&#22788;&#29702;</text><rect fill="#C8E6C9" height="17.0146" style="stroke:none;stroke-width:1.0;" width="38" x="1082.5" y="2090.415"/><text fill="#000000" font-family="Verdana" font-size="14" lengthAdjust="spacing" textLength="5" x="1082.5" y="2104.4902">&#160;</text><text fill="#000000" font-family="Verdana" font-size="14" lengthAdjust="spacing" textLength="62" x="1125.5" y="2104.4902">&#20915;&#31574;/&#38431;&#21015;</text><rect fill="#FFCCCC" height="17.0146" style="stroke:none;stroke-width:1.0;" width="38" x="1082.5" y="2107.4297"/><text fill="#000000" font-family="Verdana" font-size="14" lengthAdjust="spacing" textLength="5" x="1082.5" y="2121.5049">&#160;</text><text fill="#000000" font-family="Verdana" font-size="14" lengthAdjust="spacing" textLength="56" x="1125.5" y="2121.5049">&#39044;&#35686;&#32452;&#20214;</text><line style="stroke:#000000;stroke-width:1.0;" x1="1082.5" x2="1192.5" y1="1988.3271" y2="1988.3271"/><line style="stroke:#000000;stroke-width:1.0;" x1="1082.5" x2="1192.5" y1="2005.3418" y2="2005.3418"/><line style="stroke:#000000;stroke-width:1.0;" x1="1082.5" x2="1192.5" y1="2022.3564" y2="2022.3564"/><line style="stroke:#000000;stroke-width:1.0;" x1="1082.5" x2="1192.5" y1="2039.3711" y2="2039.3711"/><line style="stroke:#000000;stroke-width:1.0;" x1="1082.5" x2="1192.5" y1="2056.3857" y2="2056.3857"/><line style="stroke:#000000;stroke-width:1.0;" x1="1082.5" x2="1192.5" y1="2073.4004" y2="2073.4004"/><line style="stroke:#000000;stroke-width:1.0;" x1="1082.5" x2="1192.5" y1="2090.415" y2="2090.415"/><line style="stroke:#000000;stroke-width:1.0;" x1="1082.5" x2="1192.5" y1="2107.4297" y2="2107.4297"/><line style="stroke:#000000;stroke-width:1.0;" x1="1082.5" x2="1192.5" y1="2124.4443" y2="2124.4443"/><line style="stroke:#000000;stroke-width:1.0;" x1="1082.5" x2="1082.5" y1="1988.3271" y2="2124.4443"/><line style="stroke:#000000;stroke-width:1.0;" x1="1120.5" x2="1120.5" y1="1988.3271" y2="2124.4443"/><line style="stroke:#000000;stroke-width:1.0;" x1="1192.5" x2="1192.5" y1="1988.3271" y2="2124.4443"/><text fill="#000000" font-family="Verdana" font-size="14" lengthAdjust="spacing" textLength="5" x="1082.5" y="2140.5195">&#160;</text><text fill="#000000" font-family="Verdana" font-size="14" font-weight="bold" lengthAdjust="spacing" textLength="62" x="1082.5" y="2157.5342">&#20851;&#38190;&#26102;&#24207;:</text><text fill="#000000" font-family="Verdana" font-size="14" lengthAdjust="spacing" textLength="207" x="1082.5" y="2174.5488">T0-T50: Phase1&#23436;&#25104; &#8594; Partial</text><text fill="#000000" font-family="Verdana" font-size="14" lengthAdjust="spacing" textLength="197" x="1082.5" y="2191.5635">T0-T250: Phase2&#23436;&#25104; &#8594; Full</text><text fill="#000000" font-family="Verdana" font-size="14" lengthAdjust="spacing" textLength="5" x="1082.5" y="2208.5781">&#160;</text><text fill="#000000" font-family="Verdana" font-size="14" font-weight="bold" lengthAdjust="spacing" textLength="62" x="1082.5" y="2225.5928">&#35270;&#35273;&#25928;&#26524;:</text><text fill="#000000" font-family="Verdana" font-size="14" lengthAdjust="spacing" textLength="188" x="1082.5" y="2242.6074">&#20808;&#40657;&#23631; &#8594; &#24555;&#36895;&#26694; &#8594; &#34917;&#20805;&#26631;&#31614;</text><!--SRC=[ZLRhKnDN5F- -VyKjVX2mZB0H7vdM6Gc9OmT7IcrdEgN3BCa26SDkkjdugDg1Ic8ObAZ8GqL2AA-1IR2250Y53_rF7ExTpJV_X9xxIB892OeE9EUSUzw_SyvNve0wgA9mI0bgKkHMK0ihXZA8UXN_hNv3Zse1ZnxI3NJAvwN_9CaCcY4LMM_U7-tjuOrzEx5cRUQiN0ereQETKMllq5eTm_j_aimIcTicSoDszi3Efb6zbHivoctRAt7yvg11aauZd7rzj3jAvl_1-qc7ORy-6DOrLJFHVGd1Jrkb8zuMNoiumdYw4L0DGMzkQRrmgOtHVRfc5gZiHteeEKn4JDrG-jLQ1ZmNlUSzbuuRaBqNsbqoLNKQVLlb1_7WMzp8tiZXdHN-jQge50QZr8MwBbK12pS73FXRzguEKkxpDb-KXPkblFpoKp2WwXubR4ODjLk3bEONdkFa4acD_8gK2Bhjhtn0ZQ0ENG-3D9X8Jk63DMjyWqaRp84JeihFf71Y6g82r_ZdwY4LibhdWnohtqVLA3XNV0CVixlvnqctgxcEcksZGZs_IPAccoeoWlq39jBxYcI41fMxaU3lgXkvca494CZyFdIA6vq_r_pVzBcBpQZhAgqsZiTmPiQD_d0rjLvlEqjbLIs0gDhF54fs8pA-QZsBYqBLa_aTVFYeuJCLkwRrgOQg-LLHjAewMFKydZQFg1xxTHfr3YWHjGNXm_NyK8e_hApLTJsWXbgwjPzlTDm0bEM79yXVG-J3MBScDmz6MCa6cGYruBlaELTLWQjRyz6SulXxQssueA6brQd1LKi3zzBAJP2vMRmu0avsQrPk1YUshRq5aewViIVUmX-cASnaU_IeYKwrkRojFi-nU6LaxK-GsC89yShG7hDxvDK6JiIjltCqrh9WPUPgwwNsggxArLpDvqQegsJ-iPKvABagrt8LnpUjp1IVKfLMsbL_C1BKDQ_M7zIWgydRD4ZXn2APoZ3L0I5GDZmS2bWjhcccQXZHi0akRgsGeQNymeYTMMOAWWKUxnkFvxE0XExbONyH9hlKI3Ha2b0wtrNYqc22nu5Pf2FKgHXcK0bnBMuWtESD-RLeguSIIwel6gef8vTaln2iBW3hp86rkFT5KxKz6865Tg-0KCV34yPglwgfXcAgFMm8HUeRsFYoNgP8uXb-jShg13A2VQn73EKEx8kxQgJGWT1wP9C_2m2pyi5tdTwhoAlv8G_mOd_AcXzciYeZLKh_O48eW-X6r0n7eO78Xs6yzkBetma0LNw8FummaHCQ1ozEvH-jyXQlda353ms3wjeC_Kv4DQYPfBsIWE1PR_HoSatzPF8TUPe5r-p3EJA-LDt4RJzgQheirWxYkp8vnPUO9AXKG6m2a820wzbEWREXGAKIOWoweIX5WMDyLpbV4eyelmXQD-eD1RL0JrWn1tfueplb72CE97lrkpnEIUYd8YNukb4VXKoP6jU9QYG7WsU68yqPUK_dbQwRrwvqG4jQwsFuwIOlE_eu6-CuXIWWX5lGDJTRONBIlSXs34u-pIyd720hn1NGxsY57Ccq32lBEFcyV0ZNypkkGH9I5KcB-04mPO7AfK3bMe7A9mVg-x63Hccdbm1xw5CgjNeiGBaGOVO9cTpY8yOHOL4jjL72g-W3FWWR90U3XKNHAoRg27uo9LncPChde6GI5DhKTEAP9AXKW8CF11YiU- -PC244ZR85T82FitDaUfltEq2bDbXZc_cNMNjZYyoCLqSIoqklRfhw89tGlBAGbu-lqpKE3NvRe3FyWmlXtMqx_OJULaCvUsWQ_78ZcIVNsMOuySun_ezsdbgPKNmGuvlRaVbg3idmubFgsKADKu3hGCw-0sh95r5freUy9xW7-PaSJi_nA2izCFLm-IdvAVLoHEWGnomG-U4jK99U9xaq48kt7NaoREKoP3jXR-tMqEz8oJ43ScbD2WinoX5RiHHEB0OaCMrFCXbI-zWMBg2FsHpVGCv316Z1FiSaSxCL0al8phxJUoEcuW_HhQA68YfdsHlBLYukabx3O76mCOklLn6P7Sglpnpjp-1OmjfZTpaxBg57sE0hjWu_RbYrCk0TZcqVvQRiZKm-jUam5bBxwHT3F7q0ryt2h3twdduIlV-0qj4tOcrVXizyauizLcBJSvkoUNFX_KaouNnDBrtA5fXOJUEvCISRhakcd3TeEPkVYupjE3MBR7xqCUNiYZmhRZAdRnxsd6V5uJhyRspaM8UMntj9TsCZ7NBDJJ38tGB7VDoWZ_4NXQuI8d9HHdR8q1uhg8P1Ow-Caia4lSEOQYXSFlSS_vraiY8RwJZxndkItyoqIhmyqly0]--></g></svg>